<?xml version="1.0" encoding="UTF-8"?>
<svg version="1.1" xmlns="http://www.w3.org/2000/svg" width="600" height="487">
<path d="M0 0 C0.73691621 -0.00205263 1.47383243 -0.00410527 2.23307943 -0.0062201 C4.70989155 -0.01188821 7.18664803 -0.01043308 9.6634655 -0.00901413 C11.45422997 -0.01159788 13.24499386 -0.01461106 15.03575695 -0.01801753 C19.96291094 -0.02608972 24.89005037 -0.02787723 29.8172102 -0.028615 C35.12890641 -0.03046518 40.44059507 -0.03801236 45.75228691 -0.04475021 C57.37012646 -0.05833579 68.98796256 -0.06435865 80.60580873 -0.06876087 C87.85959541 -0.07152301 95.11338075 -0.07576032 102.36716652 -0.08026505 C122.44928529 -0.09245819 142.531403 -0.10275729 162.61352539 -0.10614014 C164.54172755 -0.10646949 164.54172755 -0.10646949 166.50888329 -0.10680549 C167.79743511 -0.10702377 169.08598693 -0.10724204 170.41358578 -0.10746694 C173.02470088 -0.1079104 175.63581598 -0.10835697 178.24693108 -0.10880661 C179.54213558 -0.10902804 180.83734008 -0.10924947 182.17179321 -0.10947761 C203.1576383 -0.11342542 224.14344867 -0.13087873 245.12928034 -0.15416613 C266.67317955 -0.1778799 288.21706134 -0.19034201 309.76097381 -0.19150805 C321.85783522 -0.19242482 333.95465138 -0.19817751 346.05150032 -0.21632767 C356.35263054 -0.23172899 366.65370154 -0.23684892 376.95484109 -0.22858956 C382.20982468 -0.22468315 387.46468899 -0.22561234 392.7196579 -0.23964691 C397.53367053 -0.25238613 402.34747427 -0.25118803 407.16148661 -0.2390562 C408.89974678 -0.23709925 410.63802175 -0.24017755 412.37626113 -0.24890056 C421.54788966 -0.29199949 429.85811903 0.09192311 438.62193108 3.13142776 C440.0154857 3.53521016 441.41109981 3.93201126 442.80943108 4.31892776 C444.20161858 4.72111526 444.20161858 4.72111526 445.62193108 5.13142776 C445.62193108 5.79142776 445.62193108 6.45142776 445.62193108 7.13142776 C446.20974358 7.38666214 446.79755608 7.64189651 447.40318108 7.90486526 C453.77986257 11.43000257 458.07627557 18.47730898 460.62193108 25.13142776 C462.78997544 32.70243148 462.92753653 40.27574168 462.95745659 48.10420227 C462.96586151 50.23178862 462.9864627 52.35896894 463.0099926 54.48643875 C463.06592283 59.76024561 463.10167504 65.03415022 463.13761711 70.30812454 C463.16888993 74.78869839 463.20805704 79.2690663 463.25787163 83.74947357 C463.27787081 85.84116535 463.28623973 87.93269648 463.29417229 90.02446365 C463.30758659 91.29323349 463.3210009 92.56200333 463.3348217 93.86922073 C463.34211296 94.98489426 463.34940422 96.10056778 463.35691643 97.25004959 C463.61639219 100.07120611 464.15980853 101.73646377 465.62193108 104.13142776 C466.92130608 104.11080276 468.22068108 104.09017776 469.55943108 104.06892776 C474.31575432 104.06137805 478.90582061 104.53255659 483.62193108 105.13142776 C483.62193108 105.79142776 483.62193108 106.45142776 483.62193108 107.13142776 C485.60193108 107.13142776 487.58193108 107.13142776 489.62193108 107.13142776 C489.62193108 107.79142776 489.62193108 108.45142776 489.62193108 109.13142776 C490.94193108 109.13142776 492.26193108 109.13142776 493.62193108 109.13142776 C493.62193108 109.79142776 493.62193108 110.45142776 493.62193108 111.13142776 C494.28193108 111.13142776 494.94193108 111.13142776 495.62193108 111.13142776 C495.62193108 111.79142776 495.62193108 112.45142776 495.62193108 113.13142776 C496.21618889 113.39439651 496.8104467 113.65736526 497.42271233 113.92830276 C501.0011198 115.88593954 503.37050218 118.76473998 505.62193108 122.13142776 C506.49693108 125.56892776 506.49693108 125.56892776 506.62193108 128.13142776 C507.28193108 128.13142776 507.94193108 128.13142776 508.62193108 128.13142776 C509.71103202 134.29749313 509.76327013 140.31959273 509.75132561 146.57112503 C509.75307793 147.70367722 509.75483025 148.8362294 509.75663567 150.00310135 C509.76102535 153.73469464 509.75812652 157.46624027 509.75474358 161.19783401 C509.7554174 163.79662459 509.75638808 166.39541511 509.75764275 168.99420547 C509.75911577 174.43537938 509.75707352 179.87653547 509.75230217 185.31770706 C509.74685796 191.59853249 509.74862576 197.87932546 509.75412858 204.16015011 C509.75922133 210.21658434 509.75867224 216.27300275 509.75574684 222.32943916 C509.75508 224.90065325 509.75589753 227.47186817 509.75822639 230.04308128 C509.76076666 233.63578484 509.75689295 237.22842611 509.75132561 240.82112503 C509.75334984 241.88259247 509.75537407 242.94405991 509.75745964 244.03769302 C509.74365406 248.84834552 509.63628216 253.40291809 508.62193108 258.13142776 C507.96193108 258.13142776 507.30193108 258.13142776 506.62193108 258.13142776 C506.71474358 259.21424026 506.71474358 259.21424026 506.80943108 260.31892776 C506.58446487 263.69342092 505.62323345 265.43736688 503.62193108 268.13142776 C502.96193108 268.13142776 502.30193108 268.13142776 501.62193108 268.13142776 C501.62193108 268.79142776 501.62193108 269.45142776 501.62193108 270.13142776 C500.96193108 270.13142776 500.30193108 270.13142776 499.62193108 270.13142776 C499.62193108 270.79142776 499.62193108 271.45142776 499.62193108 272.13142776 C498.96193108 272.13142776 498.30193108 272.13142776 497.62193108 272.13142776 C497.62193108 272.79142776 497.62193108 273.45142776 497.62193108 274.13142776 C488.46642209 278.95787315 480.89327422 281.29387449 470.51255608 281.88533401 C467.55548578 282.02323576 467.55548578 282.02323576 464.62193108 283.13142776 C463.47834976 286.5621717 463.49144305 289.20089557 463.48390007 292.82060623 C463.48107879 293.5041175 463.47825751 294.18762877 463.47535074 294.8918525 C463.4670022 297.18770542 463.46566622 299.48351012 463.46421623 301.77937698 C463.45954789 303.4237316 463.45440429 305.06808492 463.44882011 306.71243668 C463.43753394 310.25808338 463.42910197 313.80372166 463.42270088 317.34938049 C463.41201403 322.96524806 463.39176439 328.58105551 463.36958122 334.19688797 C463.30768958 350.16820373 463.25374329 366.13951686 463.22056389 382.11091995 C463.20216542 390.92857744 463.17315928 399.74613498 463.13255918 408.56371891 C463.1115669 413.22601184 463.09604309 417.88817919 463.09375191 422.55052185 C463.09158994 426.94514944 463.07556431 431.33951617 463.04936218 435.7340641 C463.04222477 437.33792363 463.04004088 438.94181496 463.04346466 440.54568672 C463.0640982 452.05973489 462.70902346 463.9862738 456.62193108 474.13142776 C455.96193108 474.13142776 455.30193108 474.13142776 454.62193108 474.13142776 C454.29193108 475.45142776 453.96193108 476.77142776 453.62193108 478.13142776 C452.96193108 478.13142776 452.30193108 478.13142776 451.62193108 478.13142776 C450.96193108 479.45142776 450.30193108 480.77142776 449.62193108 482.13142776 C424.83967092 482.31830882 400.05751635 482.45938292 375.27469349 482.54592514 C363.76755977 482.58717636 352.26086386 482.64341616 340.75401115 482.73494339 C330.72461947 482.81468065 320.69554483 482.86629346 310.66584498 482.88413572 C305.35498498 482.89456565 300.04503201 482.91907601 294.73446274 482.97726822 C289.73475787 483.03160967 284.73633269 483.04831256 279.73636055 483.03628922 C277.90252729 483.03848838 276.06865083 483.05438021 274.23507309 483.08507156 C260.39848795 483.30529588 260.39848795 483.30529588 255.9405365 480.35968399 C251.62193108 475.6102929 251.62193108 475.6102929 251.62193108 472.13142776 C250.96193108 472.13142776 250.30193108 472.13142776 249.62193108 472.13142776 C248.03055022 467.95405303 247.4091505 464.59981992 247.62193108 460.13142776 C246.96193108 460.13142776 246.30193108 460.13142776 245.62193108 460.13142776 C245.61162361 459.26112427 245.60131615 458.39082077 245.59069633 457.49414444 C245.49277716 449.29811932 245.39027062 441.10216725 245.28259182 432.90626431 C245.22739356 428.692527 245.17397849 424.47878272 245.12461662 420.26497269 C245.07692742 416.19952013 245.02458291 412.13415187 244.96899033 408.06879997 C244.94858743 406.51666548 244.92987093 404.96450788 244.91285706 403.41233253 C244.88876729 401.24073172 244.85871909 399.06928989 244.82725334 396.89778519 C244.81170906 395.66090454 244.79616478 394.4240239 244.78014946 393.14966202 C244.75363408 390.08298413 244.75363408 390.08298413 243.62193108 387.13142776 C242.63193108 387.13142776 241.64193108 387.13142776 240.62193108 387.13142776 C240.62193108 386.47142776 240.62193108 385.81142776 240.62193108 385.13142776 C220.16193108 385.13142776 199.70193108 385.13142776 178.62193108 385.13142776 C178.62193108 385.79142776 178.62193108 386.45142776 178.62193108 387.13142776 C178.13486687 387.54184311 177.64780266 387.95225845 177.14597893 388.37511063 C174.92247944 390.93747785 175.24338273 392.87684717 175.23716545 396.23250198 C175.22199883 398.12124542 175.22199883 398.12124542 175.2065258 400.04814529 C175.20808174 400.72162884 175.20963768 401.39511238 175.21124077 402.08900452 C175.21573214 404.21023181 175.20167596 406.33063028 175.18284416 408.45177078 C175.14604771 412.96997595 175.13238434 417.48809497 175.12193108 422.00642776 C175.10978416 427.21214797 175.08774086 432.41746682 175.04192924 437.62300873 C175.02855637 439.69059032 175.03249672 441.75763856 175.03733635 443.8252449 C174.95558413 454.26094844 174.10597333 464.99135735 168.62193108 474.13142776 C167.96193108 474.13142776 167.30193108 474.13142776 166.62193108 474.13142776 C165.96193108 475.78142776 165.30193108 477.43142776 164.62193108 479.13142776 C163.96193108 479.13142776 163.30193108 479.13142776 162.62193108 479.13142776 C162.62193108 479.79142776 162.62193108 480.45142776 162.62193108 481.13142776 C159.62408384 482.63035138 156.54195909 482.28670355 153.25335503 482.29205704 C152.48479374 482.29714486 151.71623246 482.30223268 150.92438143 482.30747467 C148.33504111 482.32323877 145.74572877 482.33173465 143.1563549 482.340168 C141.30537042 482.34970332 139.45438773 482.35959433 137.60340691 482.36981583 C131.511947 482.40123972 125.42047327 482.42147271 119.32896233 482.44002151 C117.77529414 482.4449675 117.77529414 482.4449675 116.19023871 482.4500134 C106.42441618 482.4807971 96.65859063 482.50750936 86.89273357 482.52443218 C74.39437595 482.54634244 61.89644776 482.58831542 49.39826185 482.65786976 C40.61432305 482.70509614 31.83050018 482.729364 23.0464384 482.73662907 C17.79839849 482.74158765 12.55084225 482.7566881 7.30294037 482.79637337 C2.36406777 482.83322855 -2.57404472 482.84165301 -7.5130291 482.82836723 C-9.3242484 482.8284212 -11.13550128 482.83872572 -12.94659424 482.86011887 C-28.33460721 483.03214585 -28.33460721 483.03214585 -33.01010323 479.33786392 C-35.37806892 476.13142776 -35.37806892 476.13142776 -35.37806892 472.13142776 C-36.03806892 472.13142776 -36.69806892 472.13142776 -37.37806892 472.13142776 C-37.37806892 471.47142776 -37.37806892 470.81142776 -37.37806892 470.13142776 C-38.03806892 470.13142776 -38.69806892 470.13142776 -39.37806892 470.13142776 C-39.37806892 468.15142776 -39.37806892 466.17142776 -39.37806892 464.13142776 C-40.03806892 464.13142776 -40.69806892 464.13142776 -41.37806892 464.13142776 C-41.43865486 463.49334183 -41.4992408 462.85525589 -41.56166267 462.19783401 C-41.64545174 461.37154495 -41.7292408 460.54525589 -41.81556892 459.69392776 C-41.89677986 458.87021683 -41.9779908 458.04650589 -42.06166267 457.19783401 C-42.16737707 455.14480751 -42.16737707 455.14480751 -43.37806892 454.13142776 C-43.4873656 451.92948247 -43.52499807 449.72397923 -43.53628731 447.51935196 C-43.54369427 446.47063914 -43.54369427 446.47063914 -43.55125087 445.40074021 C-43.56669935 443.04070824 -43.57500624 440.68070363 -43.58339119 438.32063675 C-43.59296395 436.63577913 -43.60297367 434.95092394 -43.61338997 433.26607132 C-43.64051037 428.6774494 -43.66148117 424.08881713 -43.68139195 419.50015903 C-43.70320765 414.71016075 -43.73061787 409.92019466 -43.7574482 405.13022232 C-43.80743499 396.05316079 -43.85235153 386.97608144 -43.89547056 377.89898497 C-43.94479188 367.56781909 -43.99972888 357.23668551 -44.05515015 346.90555084 C-44.16906207 325.64753987 -44.27588095 304.3894981 -44.37806892 283.13142776 C-47.709321 282.02101041 -50.43449405 281.95362878 -53.94056892 281.81892776 C-60.50206697 281.38014446 -65.52997743 280.06038787 -71.37806892 277.13142776 C-72.21724861 276.74728714 -73.0564283 276.36314651 -73.92103767 275.96736526 C-79.97637568 272.98301744 -79.97637568 272.98301744 -81.94056892 268.81892776 C-82.08494392 267.93205276 -82.22931892 267.04517776 -82.37806892 266.13142776 C-83.03806892 266.13142776 -83.69806892 266.13142776 -84.37806892 266.13142776 C-85.19781155 264.09265827 -86.00854962 262.05026701 -86.81556892 260.00642776 C-87.26802986 258.86947464 -87.7204908 257.73252151 -88.18666267 256.56111526 C-90.49011356 249.93019762 -90.53127469 243.57583364 -90.53920174 236.63484573 C-90.54416664 235.5901059 -90.54913155 234.54536606 -90.5542469 233.46896744 C-90.56882344 230.02050994 -90.57566375 226.57209848 -90.58119392 223.12361526 C-90.58694997 220.71713129 -90.59270764 218.31064732 -90.59846687 215.90416336 C-90.60896466 210.85882225 -90.61481504 205.81349701 -90.6183033 200.76814651 C-90.62377926 194.32588379 -90.64779351 187.88383334 -90.67627525 181.44163704 C-90.69496748 176.46913937 -90.70011078 171.49669211 -90.70163918 166.52416229 C-90.70465238 164.15048057 -90.71263551 161.77679946 -90.72582436 159.40315247 C-90.7430193 156.07006665 -90.74097157 152.73749004 -90.73451424 149.40437698 C-90.74372902 148.43771606 -90.7529438 147.47105515 -90.76243782 146.47510147 C-90.70444781 136.8436739 -88.52393847 127.81801158 -84.37806892 119.13142776 C-83.71806892 119.13142776 -83.05806892 119.13142776 -82.37806892 119.13142776 C-82.13056892 118.51267776 -81.88306892 117.89392776 -81.62806892 117.25642776 C-80.17178253 114.7807409 -78.99994386 114.18017774 -76.37806892 113.13142776 C-76.37806892 112.47142776 -76.37806892 111.81142776 -76.37806892 111.13142776 C-75.38806892 111.13142776 -74.39806892 111.13142776 -73.37806892 111.13142776 C-73.37806892 110.47142776 -73.37806892 109.81142776 -73.37806892 109.13142776 C-72.05806892 109.13142776 -70.73806892 109.13142776 -69.37806892 109.13142776 C-69.37806892 108.47142776 -69.37806892 107.81142776 -69.37806892 107.13142776 C-63.72361492 104.97048993 -58.2729892 104.46222725 -52.30385017 103.92049026 C-47.87967526 103.6127462 -47.87967526 103.6127462 -44.37806892 101.13142776 C-44.05239509 98.30595068 -44.05239509 98.30595068 -44.07509041 94.95344925 C-44.05844841 93.65547913 -44.04180641 92.357509 -44.02466011 91.02020645 C-44.01609942 89.59764517 -44.00760178 88.17508352 -43.99916267 86.75252151 C-43.98299486 85.30044809 -43.96581563 83.84838559 -43.94766426 82.3963356 C-43.90192786 78.57122718 -43.86714587 74.74610436 -43.83546638 70.92085648 C-43.78363171 64.79387055 -43.71860269 58.66704497 -43.64725113 52.54025841 C-43.62434664 50.39475428 -43.60812241 48.24927073 -43.5925312 46.10370255 C-43.57904137 44.80888458 -43.56555153 43.51406662 -43.55165291 42.18001175 C-43.5373851 40.46031425 -43.5373851 40.46031425 -43.52282906 38.7058754 C-43.37806892 36.13142776 -43.37806892 36.13142776 -42.37806892 35.13142776 C-42.14782351 33.15789562 -41.91857938 31.1842312 -41.69838142 29.20955276 C-41.30494929 26.65704182 -40.47143306 24.46393792 -39.37806892 22.13142776 C-38.71806892 22.13142776 -38.05806892 22.13142776 -37.37806892 22.13142776 C-37.37806892 20.81142776 -37.37806892 19.49142776 -37.37806892 18.13142776 C-36.71806892 18.13142776 -36.05806892 18.13142776 -35.37806892 18.13142776 C-35.29556892 17.34767776 -35.21306892 16.56392776 -35.12806892 15.75642776 C-34.37806892 13.13142776 -34.37806892 13.13142776 -32.31556892 11.81892776 C-31.67619392 11.59205276 -31.03681892 11.36517776 -30.37806892 11.13142776 C-30.37806892 10.47142776 -30.37806892 9.81142776 -30.37806892 9.13142776 C-27.37806892 7.13142776 -27.37806892 7.13142776 -24.37806892 7.13142776 C-24.37806892 6.47142776 -24.37806892 5.81142776 -24.37806892 5.13142776 C-22.48353671 4.48178753 -20.58738244 3.83687662 -18.69056892 3.19392776 C-17.10695564 2.65445511 -17.10695564 2.65445511 -15.49135017 2.10408401 C-10.20843496 0.45358729 -5.54551918 0.00526238 0 0 Z M428.62193108 14.13142776 C432.62193108 15.13142776 432.62193108 15.13142776 432.62193108 15.13142776 Z M-56.37806892 117.13142776 C-56.37806892 117.46142776 -56.37806892 117.79142776 -56.37806892 118.13142776 C-49.11806892 118.13142776 -41.85806892 118.13142776 -34.37806892 118.13142776 C-34.37806892 117.80142776 -34.37806892 117.47142776 -34.37806892 117.13142776 C-41.63806892 117.13142776 -48.89806892 117.13142776 -56.37806892 117.13142776 Z M461.62193108 117.13142776 C461.62193108 117.46142776 461.62193108 117.79142776 461.62193108 118.13142776 C466.24193108 118.13142776 470.86193108 118.13142776 475.62193108 118.13142776 C475.62193108 117.80142776 475.62193108 117.47142776 475.62193108 117.13142776 C471.00193108 117.13142776 466.38193108 117.13142776 461.62193108 117.13142776 Z " fill="#D97757" transform="translate(90.3780689239502,4.868572235107422)"/>
<path d="M0 0 C0.73691621 -0.00205263 1.47383243 -0.00410527 2.23307943 -0.0062201 C4.70989155 -0.01188821 7.18664803 -0.01043308 9.6634655 -0.00901413 C11.45422997 -0.01159788 13.24499386 -0.01461106 15.03575695 -0.01801753 C19.96291094 -0.02608972 24.89005037 -0.02787723 29.8172102 -0.028615 C35.12890641 -0.03046518 40.44059507 -0.03801236 45.75228691 -0.04475021 C57.37012646 -0.05833579 68.98796256 -0.06435865 80.60580873 -0.06876087 C87.85959541 -0.07152301 95.11338075 -0.07576032 102.36716652 -0.08026505 C122.44928529 -0.09245819 142.531403 -0.10275729 162.61352539 -0.10614014 C164.54172755 -0.10646949 164.54172755 -0.10646949 166.50888329 -0.10680549 C167.79743511 -0.10702377 169.08598693 -0.10724204 170.41358578 -0.10746694 C173.02470088 -0.1079104 175.63581598 -0.10835697 178.24693108 -0.10880661 C179.54213558 -0.10902804 180.83734008 -0.10924947 182.17179321 -0.10947761 C203.1576383 -0.11342542 224.14344867 -0.13087873 245.12928034 -0.15416613 C266.67317955 -0.1778799 288.21706134 -0.19034201 309.76097381 -0.19150805 C321.85783522 -0.19242482 333.95465138 -0.19817751 346.05150032 -0.21632767 C356.35263054 -0.23172899 366.65370154 -0.23684892 376.95484109 -0.22858956 C382.20982468 -0.22468315 387.46468899 -0.22561234 392.7196579 -0.23964691 C397.53367053 -0.25238613 402.34747427 -0.25118803 407.16148661 -0.2390562 C408.89974678 -0.23709925 410.63802175 -0.24017755 412.37626113 -0.24890056 C421.54788966 -0.29199949 429.85811903 0.09192311 438.62193108 3.13142776 C440.0154857 3.53521016 441.41109981 3.93201126 442.80943108 4.31892776 C444.20161858 4.72111526 444.20161858 4.72111526 445.62193108 5.13142776 C445.62193108 5.79142776 445.62193108 6.45142776 445.62193108 7.13142776 C446.20974358 7.38666214 446.79755608 7.64189651 447.40318108 7.90486526 C453.77986257 11.43000257 458.07627557 18.47730898 460.62193108 25.13142776 C462.78997544 32.70243148 462.92753653 40.27574168 462.95745659 48.10420227 C462.96586151 50.23178862 462.9864627 52.35896894 463.0099926 54.48643875 C463.06592283 59.76024561 463.10167504 65.03415022 463.13761711 70.30812454 C463.16888993 74.78869839 463.20805704 79.2690663 463.25787163 83.74947357 C463.27787081 85.84116535 463.28623973 87.93269648 463.29417229 90.02446365 C463.30758659 91.29323349 463.3210009 92.56200333 463.3348217 93.86922073 C463.34211296 94.98489426 463.34940422 96.10056778 463.35691643 97.25004959 C463.61639219 100.07120611 464.15980853 101.73646377 465.62193108 104.13142776 C466.92130608 104.11080276 468.22068108 104.09017776 469.55943108 104.06892776 C474.31575432 104.06137805 478.90582061 104.53255659 483.62193108 105.13142776 C483.62193108 105.79142776 483.62193108 106.45142776 483.62193108 107.13142776 C485.60193108 107.13142776 487.58193108 107.13142776 489.62193108 107.13142776 C489.62193108 107.79142776 489.62193108 108.45142776 489.62193108 109.13142776 C490.94193108 109.13142776 492.26193108 109.13142776 493.62193108 109.13142776 C493.62193108 109.79142776 493.62193108 110.45142776 493.62193108 111.13142776 C494.28193108 111.13142776 494.94193108 111.13142776 495.62193108 111.13142776 C495.62193108 111.79142776 495.62193108 112.45142776 495.62193108 113.13142776 C496.21618889 113.39439651 496.8104467 113.65736526 497.42271233 113.92830276 C501.0011198 115.88593954 503.37050218 118.76473998 505.62193108 122.13142776 C506.49693108 125.56892776 506.49693108 125.56892776 506.62193108 128.13142776 C507.28193108 128.13142776 507.94193108 128.13142776 508.62193108 128.13142776 C509.71103202 134.29749313 509.76327013 140.31959273 509.75132561 146.57112503 C509.75307793 147.70367722 509.75483025 148.8362294 509.75663567 150.00310135 C509.76102535 153.73469464 509.75812652 157.46624027 509.75474358 161.19783401 C509.7554174 163.79662459 509.75638808 166.39541511 509.75764275 168.99420547 C509.75911577 174.43537938 509.75707352 179.87653547 509.75230217 185.31770706 C509.74685796 191.59853249 509.74862576 197.87932546 509.75412858 204.16015011 C509.75922133 210.21658434 509.75867224 216.27300275 509.75574684 222.32943916 C509.75508 224.90065325 509.75589753 227.47186817 509.75822639 230.04308128 C509.76076666 233.63578484 509.75689295 237.22842611 509.75132561 240.82112503 C509.75334984 241.88259247 509.75537407 242.94405991 509.75745964 244.03769302 C509.74365406 248.84834552 509.63628216 253.40291809 508.62193108 258.13142776 C507.96193108 258.13142776 507.30193108 258.13142776 506.62193108 258.13142776 C506.71474358 259.21424026 506.71474358 259.21424026 506.80943108 260.31892776 C506.58446487 263.69342092 505.62323345 265.43736688 503.62193108 268.13142776 C502.96193108 268.13142776 502.30193108 268.13142776 501.62193108 268.13142776 C501.62193108 268.79142776 501.62193108 269.45142776 501.62193108 270.13142776 C500.96193108 270.13142776 500.30193108 270.13142776 499.62193108 270.13142776 C499.62193108 270.79142776 499.62193108 271.45142776 499.62193108 272.13142776 C498.96193108 272.13142776 498.30193108 272.13142776 497.62193108 272.13142776 C497.62193108 272.79142776 497.62193108 273.45142776 497.62193108 274.13142776 C488.46642209 278.95787315 480.89327422 281.29387449 470.51255608 281.88533401 C467.55548578 282.02323576 467.55548578 282.02323576 464.62193108 283.13142776 C463.47834976 286.5621717 463.49144305 289.20089557 463.48390007 292.82060623 C463.48107879 293.5041175 463.47825751 294.18762877 463.47535074 294.8918525 C463.4670022 297.18770542 463.46566622 299.48351012 463.46421623 301.77937698 C463.45954789 303.4237316 463.45440429 305.06808492 463.44882011 306.71243668 C463.43753394 310.25808338 463.42910197 313.80372166 463.42270088 317.34938049 C463.41201403 322.96524806 463.39176439 328.58105551 463.36958122 334.19688797 C463.30768958 350.16820373 463.25374329 366.13951686 463.22056389 382.11091995 C463.20216542 390.92857744 463.17315928 399.74613498 463.13255918 408.56371891 C463.1115669 413.22601184 463.09604309 417.88817919 463.09375191 422.55052185 C463.09158994 426.94514944 463.07556431 431.33951617 463.04936218 435.7340641 C463.04222477 437.33792363 463.04004088 438.94181496 463.04346466 440.54568672 C463.0640982 452.05973489 462.70902346 463.9862738 456.62193108 474.13142776 C455.96193108 474.13142776 455.30193108 474.13142776 454.62193108 474.13142776 C454.29193108 475.45142776 453.96193108 476.77142776 453.62193108 478.13142776 C452.96193108 478.13142776 452.30193108 478.13142776 451.62193108 478.13142776 C450.96193108 479.45142776 450.30193108 480.77142776 449.62193108 482.13142776 C424.83967092 482.31830882 400.05751635 482.45938292 375.27469349 482.54592514 C363.76755977 482.58717636 352.26086386 482.64341616 340.75401115 482.73494339 C330.72461947 482.81468065 320.69554483 482.86629346 310.66584498 482.88413572 C305.35498498 482.89456565 300.04503201 482.91907601 294.73446274 482.97726822 C289.73475787 483.03160967 284.73633269 483.04831256 279.73636055 483.03628922 C277.90252729 483.03848838 276.06865083 483.05438021 274.23507309 483.08507156 C260.39848795 483.30529588 260.39848795 483.30529588 255.9405365 480.35968399 C251.62193108 475.6102929 251.62193108 475.6102929 251.62193108 472.13142776 C250.96193108 472.13142776 250.30193108 472.13142776 249.62193108 472.13142776 C248.03055022 467.95405303 247.4091505 464.59981992 247.62193108 460.13142776 C246.96193108 460.13142776 246.30193108 460.13142776 245.62193108 460.13142776 C245.61162361 459.26112427 245.60131615 458.39082077 245.59069633 457.49414444 C245.49277716 449.29811932 245.39027062 441.10216725 245.28259182 432.90626431 C245.22739356 428.692527 245.17397849 424.47878272 245.12461662 420.26497269 C245.07692742 416.19952013 245.02458291 412.13415187 244.96899033 408.06879997 C244.94858743 406.51666548 244.92987093 404.96450788 244.91285706 403.41233253 C244.88876729 401.24073172 244.85871909 399.06928989 244.82725334 396.89778519 C244.81170906 395.66090454 244.79616478 394.4240239 244.78014946 393.14966202 C244.75363408 390.08298413 244.75363408 390.08298413 243.62193108 387.13142776 C242.63193108 387.13142776 241.64193108 387.13142776 240.62193108 387.13142776 C240.62193108 386.47142776 240.62193108 385.81142776 240.62193108 385.13142776 C220.16193108 385.13142776 199.70193108 385.13142776 178.62193108 385.13142776 C178.62193108 385.79142776 178.62193108 386.45142776 178.62193108 387.13142776 C178.13486687 387.54184311 177.64780266 387.95225845 177.14597893 388.37511063 C174.92247944 390.93747785 175.24338273 392.87684717 175.23716545 396.23250198 C175.22199883 398.12124542 175.22199883 398.12124542 175.2065258 400.04814529 C175.20808174 400.72162884 175.20963768 401.39511238 175.21124077 402.08900452 C175.21573214 404.21023181 175.20167596 406.33063028 175.18284416 408.45177078 C175.14604771 412.96997595 175.13238434 417.48809497 175.12193108 422.00642776 C175.10978416 427.21214797 175.08774086 432.41746682 175.04192924 437.62300873 C175.02855637 439.69059032 175.03249672 441.75763856 175.03733635 443.8252449 C174.95558413 454.26094844 174.10597333 464.99135735 168.62193108 474.13142776 C167.96193108 474.13142776 167.30193108 474.13142776 166.62193108 474.13142776 C165.96193108 475.78142776 165.30193108 477.43142776 164.62193108 479.13142776 C163.96193108 479.13142776 163.30193108 479.13142776 162.62193108 479.13142776 C162.62193108 479.79142776 162.62193108 480.45142776 162.62193108 481.13142776 C159.62408384 482.63035138 156.54195909 482.28670355 153.25335503 482.29205704 C152.48479374 482.29714486 151.71623246 482.30223268 150.92438143 482.30747467 C148.33504111 482.32323877 145.74572877 482.33173465 143.1563549 482.340168 C141.30537042 482.34970332 139.45438773 482.35959433 137.60340691 482.36981583 C131.511947 482.40123972 125.42047327 482.42147271 119.32896233 482.44002151 C117.77529414 482.4449675 117.77529414 482.4449675 116.19023871 482.4500134 C106.42441618 482.4807971 96.65859063 482.50750936 86.89273357 482.52443218 C74.39437595 482.54634244 61.89644776 482.58831542 49.39826185 482.65786976 C40.61432305 482.70509614 31.83050018 482.729364 23.0464384 482.73662907 C17.79839849 482.74158765 12.55084225 482.7566881 7.30294037 482.79637337 C2.36406777 482.83322855 -2.57404472 482.84165301 -7.5130291 482.82836723 C-9.3242484 482.8284212 -11.13550128 482.83872572 -12.94659424 482.86011887 C-28.33460721 483.03214585 -28.33460721 483.03214585 -33.01010323 479.33786392 C-35.37806892 476.13142776 -35.37806892 476.13142776 -35.37806892 472.13142776 C-36.03806892 472.13142776 -36.69806892 472.13142776 -37.37806892 472.13142776 C-37.37806892 471.47142776 -37.37806892 470.81142776 -37.37806892 470.13142776 C-38.03806892 470.13142776 -38.69806892 470.13142776 -39.37806892 470.13142776 C-39.37806892 468.15142776 -39.37806892 466.17142776 -39.37806892 464.13142776 C-40.03806892 464.13142776 -40.69806892 464.13142776 -41.37806892 464.13142776 C-41.43865486 463.49334183 -41.4992408 462.85525589 -41.56166267 462.19783401 C-41.64545174 461.37154495 -41.7292408 460.54525589 -41.81556892 459.69392776 C-41.89677986 458.87021683 -41.9779908 458.04650589 -42.06166267 457.19783401 C-42.16737707 455.14480751 -42.16737707 455.14480751 -43.37806892 454.13142776 C-43.4873656 451.92948247 -43.52499807 449.72397923 -43.53628731 447.51935196 C-43.54369427 446.47063914 -43.54369427 446.47063914 -43.55125087 445.40074021 C-43.56669935 443.04070824 -43.57500624 440.68070363 -43.58339119 438.32063675 C-43.59296395 436.63577913 -43.60297367 434.95092394 -43.61338997 433.26607132 C-43.64051037 428.6774494 -43.66148117 424.08881713 -43.68139195 419.50015903 C-43.70320765 414.71016075 -43.73061787 409.92019466 -43.7574482 405.13022232 C-43.80743499 396.05316079 -43.85235153 386.97608144 -43.89547056 377.89898497 C-43.94479188 367.56781909 -43.99972888 357.23668551 -44.05515015 346.90555084 C-44.16906207 325.64753987 -44.27588095 304.3894981 -44.37806892 283.13142776 C-47.709321 282.02101041 -50.43449405 281.95362878 -53.94056892 281.81892776 C-60.50206697 281.38014446 -65.52997743 280.06038787 -71.37806892 277.13142776 C-72.21724861 276.74728714 -73.0564283 276.36314651 -73.92103767 275.96736526 C-79.97637568 272.98301744 -79.97637568 272.98301744 -81.94056892 268.81892776 C-82.08494392 267.93205276 -82.22931892 267.04517776 -82.37806892 266.13142776 C-83.03806892 266.13142776 -83.69806892 266.13142776 -84.37806892 266.13142776 C-85.19781155 264.09265827 -86.00854962 262.05026701 -86.81556892 260.00642776 C-87.26802986 258.86947464 -87.7204908 257.73252151 -88.18666267 256.56111526 C-90.49011356 249.93019762 -90.53127469 243.57583364 -90.53920174 236.63484573 C-90.54416664 235.5901059 -90.54913155 234.54536606 -90.5542469 233.46896744 C-90.56882344 230.02050994 -90.57566375 226.57209848 -90.58119392 223.12361526 C-90.58694997 220.71713129 -90.59270764 218.31064732 -90.59846687 215.90416336 C-90.60896466 210.85882225 -90.61481504 205.81349701 -90.6183033 200.76814651 C-90.62377926 194.32588379 -90.64779351 187.88383334 -90.67627525 181.44163704 C-90.69496748 176.46913937 -90.70011078 171.49669211 -90.70163918 166.52416229 C-90.70465238 164.15048057 -90.71263551 161.77679946 -90.72582436 159.40315247 C-90.7430193 156.07006665 -90.74097157 152.73749004 -90.73451424 149.40437698 C-90.74372902 148.43771606 -90.7529438 147.47105515 -90.76243782 146.47510147 C-90.70444781 136.8436739 -88.52393847 127.81801158 -84.37806892 119.13142776 C-83.71806892 119.13142776 -83.05806892 119.13142776 -82.37806892 119.13142776 C-82.13056892 118.51267776 -81.88306892 117.89392776 -81.62806892 117.25642776 C-80.17178253 114.7807409 -78.99994386 114.18017774 -76.37806892 113.13142776 C-76.37806892 112.47142776 -76.37806892 111.81142776 -76.37806892 111.13142776 C-75.38806892 111.13142776 -74.39806892 111.13142776 -73.37806892 111.13142776 C-73.37806892 110.47142776 -73.37806892 109.81142776 -73.37806892 109.13142776 C-72.05806892 109.13142776 -70.73806892 109.13142776 -69.37806892 109.13142776 C-69.37806892 108.47142776 -69.37806892 107.81142776 -69.37806892 107.13142776 C-63.72361492 104.97048993 -58.2729892 104.46222725 -52.30385017 103.92049026 C-47.87967526 103.6127462 -47.87967526 103.6127462 -44.37806892 101.13142776 C-44.05239509 98.30595068 -44.05239509 98.30595068 -44.07509041 94.95344925 C-44.05844841 93.65547913 -44.04180641 92.357509 -44.02466011 91.02020645 C-44.01609942 89.59764517 -44.00760178 88.17508352 -43.99916267 86.75252151 C-43.98299486 85.30044809 -43.96581563 83.84838559 -43.94766426 82.3963356 C-43.90192786 78.57122718 -43.86714587 74.74610436 -43.83546638 70.92085648 C-43.78363171 64.79387055 -43.71860269 58.66704497 -43.64725113 52.54025841 C-43.62434664 50.39475428 -43.60812241 48.24927073 -43.5925312 46.10370255 C-43.57904137 44.80888458 -43.56555153 43.51406662 -43.55165291 42.18001175 C-43.5373851 40.46031425 -43.5373851 40.46031425 -43.52282906 38.7058754 C-43.37806892 36.13142776 -43.37806892 36.13142776 -42.37806892 35.13142776 C-42.14782351 33.15789562 -41.91857938 31.1842312 -41.69838142 29.20955276 C-41.30494929 26.65704182 -40.47143306 24.46393792 -39.37806892 22.13142776 C-38.71806892 22.13142776 -38.05806892 22.13142776 -37.37806892 22.13142776 C-37.37806892 20.81142776 -37.37806892 19.49142776 -37.37806892 18.13142776 C-36.71806892 18.13142776 -36.05806892 18.13142776 -35.37806892 18.13142776 C-35.29556892 17.34767776 -35.21306892 16.56392776 -35.12806892 15.75642776 C-34.37806892 13.13142776 -34.37806892 13.13142776 -32.31556892 11.81892776 C-31.67619392 11.59205276 -31.03681892 11.36517776 -30.37806892 11.13142776 C-30.37806892 10.47142776 -30.37806892 9.81142776 -30.37806892 9.13142776 C-27.37806892 7.13142776 -27.37806892 7.13142776 -24.37806892 7.13142776 C-24.37806892 6.47142776 -24.37806892 5.81142776 -24.37806892 5.13142776 C-22.48353671 4.48178753 -20.58738244 3.83687662 -18.69056892 3.19392776 C-17.10695564 2.65445511 -17.10695564 2.65445511 -15.49135017 2.10408401 C-10.20843496 0.45358729 -5.54551918 0.00526238 0 0 Z M428.62193108 14.13142776 C432.62193108 15.13142776 432.62193108 15.13142776 432.62193108 15.13142776 Z M-6.37806892 31.13142776 C-6.37806892 65.45142776 -6.37806892 99.77142776 -6.37806892 135.13142776 C-22.21806892 135.13142776 -38.05806892 135.13142776 -54.37806892 135.13142776 C-54.37806892 169.45142776 -54.37806892 203.77142776 -54.37806892 239.13142776 C-38.53806892 239.13142776 -22.69806892 239.13142776 -6.37806892 239.13142776 C-6.37806892 308.10142776 -6.37806892 377.07142776 -6.37806892 448.13142776 C9.46193108 448.13142776 25.30193108 448.13142776 41.62193108 448.13142776 C41.62193108 413.48142776 41.62193108 378.83142776 41.62193108 343.13142776 C57.79193108 343.13142776 73.96193108 343.13142776 90.62193108 343.13142776 C90.62193108 377.45142776 90.62193108 411.77142776 90.62193108 447.13142776 C106.13193108 447.13142776 121.64193108 447.13142776 137.62193108 447.13142776 C137.62193108 412.81142776 137.62193108 378.49142776 137.62193108 343.13142776 C185.47193108 343.13142776 233.32193108 343.13142776 282.62193108 343.13142776 C282.62193108 377.45142776 282.62193108 411.77142776 282.62193108 447.13142776 C298.13193108 447.13142776 313.64193108 447.13142776 329.62193108 447.13142776 C329.62193108 412.81142776 329.62193108 378.49142776 329.62193108 343.13142776 C345.79193108 343.13142776 361.96193108 343.13142776 378.62193108 343.13142776 C378.62193108 377.78142776 378.62193108 412.43142776 378.62193108 448.13142776 C394.46193108 448.13142776 410.30193108 448.13142776 426.62193108 448.13142776 C426.62193108 379.49142776 426.62193108 310.85142776 426.62193108 240.13142776 C442.13193108 240.13142776 457.64193108 240.13142776 473.62193108 240.13142776 C473.62193108 205.48142776 473.62193108 170.83142776 473.62193108 135.13142776 C458.11193108 135.13142776 442.60193108 135.13142776 426.62193108 135.13142776 C426.62193108 100.81142776 426.62193108 66.49142776 426.62193108 31.13142776 C283.73193108 31.13142776 140.84193108 31.13142776 -6.37806892 31.13142776 Z M-56.37806892 117.13142776 C-56.37806892 117.46142776 -56.37806892 117.79142776 -56.37806892 118.13142776 C-49.11806892 118.13142776 -41.85806892 118.13142776 -34.37806892 118.13142776 C-34.37806892 117.80142776 -34.37806892 117.47142776 -34.37806892 117.13142776 C-41.63806892 117.13142776 -48.89806892 117.13142776 -56.37806892 117.13142776 Z M461.62193108 117.13142776 C461.62193108 117.46142776 461.62193108 117.79142776 461.62193108 118.13142776 C466.24193108 118.13142776 470.86193108 118.13142776 475.62193108 118.13142776 C475.62193108 117.80142776 475.62193108 117.47142776 475.62193108 117.13142776 C471.00193108 117.13142776 466.38193108 117.13142776 461.62193108 117.13142776 Z " fill="#FDFCFB" transform="translate(90.3780689239502,4.868572235107422)"/>
<path d="M0 0 C0.73691621 -0.00205263 1.47383243 -0.00410527 2.23307943 -0.0062201 C4.70989155 -0.01188821 7.18664803 -0.01043308 9.6634655 -0.00901413 C11.45422997 -0.01159788 13.24499386 -0.01461106 15.03575695 -0.01801753 C19.96291094 -0.02608972 24.89005037 -0.02787723 29.8172102 -0.028615 C35.12890641 -0.03046518 40.44059507 -0.03801236 45.75228691 -0.04475021 C57.37012646 -0.05833579 68.98796256 -0.06435865 80.60580873 -0.06876087 C87.85959541 -0.07152301 95.11338075 -0.07576032 102.36716652 -0.08026505 C122.44928529 -0.09245819 142.531403 -0.10275729 162.61352539 -0.10614014 C164.54172755 -0.10646949 164.54172755 -0.10646949 166.50888329 -0.10680549 C167.79743511 -0.10702377 169.08598693 -0.10724204 170.41358578 -0.10746694 C173.02470088 -0.1079104 175.63581598 -0.10835697 178.24693108 -0.10880661 C179.54213558 -0.10902804 180.83734008 -0.10924947 182.17179321 -0.10947761 C203.1576383 -0.11342542 224.14344867 -0.13087873 245.12928034 -0.15416613 C266.67317955 -0.1778799 288.21706134 -0.19034201 309.76097381 -0.19150805 C321.85783522 -0.19242482 333.95465138 -0.19817751 346.05150032 -0.21632767 C356.35263054 -0.23172899 366.65370154 -0.23684892 376.95484109 -0.22858956 C382.20982468 -0.22468315 387.46468899 -0.22561234 392.7196579 -0.23964691 C397.53367053 -0.25238613 402.34747427 -0.25118803 407.16148661 -0.2390562 C408.89974678 -0.23709925 410.63802175 -0.24017755 412.37626113 -0.24890056 C421.54788966 -0.29199949 429.85811903 0.09192311 438.62193108 3.13142776 C440.0154857 3.53521016 441.41109981 3.93201126 442.80943108 4.31892776 C444.20161858 4.72111526 444.20161858 4.72111526 445.62193108 5.13142776 C445.62193108 5.79142776 445.62193108 6.45142776 445.62193108 7.13142776 C446.20974358 7.38666214 446.79755608 7.64189651 447.40318108 7.90486526 C453.77986257 11.43000257 458.07627557 18.47730898 460.62193108 25.13142776 C462.78997544 32.70243148 462.92753653 40.27574168 462.95745659 48.10420227 C462.96586151 50.23178862 462.9864627 52.35896894 463.0099926 54.48643875 C463.06592283 59.76024561 463.10167504 65.03415022 463.13761711 70.30812454 C463.16888993 74.78869839 463.20805704 79.2690663 463.25787163 83.74947357 C463.27787081 85.84116535 463.28623973 87.93269648 463.29417229 90.02446365 C463.30758659 91.29323349 463.3210009 92.56200333 463.3348217 93.86922073 C463.34211296 94.98489426 463.34940422 96.10056778 463.35691643 97.25004959 C463.61639219 100.07120611 464.15980853 101.73646377 465.62193108 104.13142776 C466.92130608 104.11080276 468.22068108 104.09017776 469.55943108 104.06892776 C474.31575432 104.06137805 478.90582061 104.53255659 483.62193108 105.13142776 C483.62193108 105.79142776 483.62193108 106.45142776 483.62193108 107.13142776 C485.60193108 107.13142776 487.58193108 107.13142776 489.62193108 107.13142776 C489.62193108 107.79142776 489.62193108 108.45142776 489.62193108 109.13142776 C490.94193108 109.13142776 492.26193108 109.13142776 493.62193108 109.13142776 C493.62193108 109.79142776 493.62193108 110.45142776 493.62193108 111.13142776 C494.28193108 111.13142776 494.94193108 111.13142776 495.62193108 111.13142776 C495.62193108 111.79142776 495.62193108 112.45142776 495.62193108 113.13142776 C496.21618889 113.39439651 496.8104467 113.65736526 497.42271233 113.92830276 C501.0011198 115.88593954 503.37050218 118.76473998 505.62193108 122.13142776 C506.49693108 125.56892776 506.49693108 125.56892776 506.62193108 128.13142776 C507.28193108 128.13142776 507.94193108 128.13142776 508.62193108 128.13142776 C509.71103202 134.29749313 509.76327013 140.31959273 509.75132561 146.57112503 C509.75307793 147.70367722 509.75483025 148.8362294 509.75663567 150.00310135 C509.76102535 153.73469464 509.75812652 157.46624027 509.75474358 161.19783401 C509.7554174 163.79662459 509.75638808 166.39541511 509.75764275 168.99420547 C509.75911577 174.43537938 509.75707352 179.87653547 509.75230217 185.31770706 C509.74685796 191.59853249 509.74862576 197.87932546 509.75412858 204.16015011 C509.75922133 210.21658434 509.75867224 216.27300275 509.75574684 222.32943916 C509.75508 224.90065325 509.75589753 227.47186817 509.75822639 230.04308128 C509.76076666 233.63578484 509.75689295 237.22842611 509.75132561 240.82112503 C509.75334984 241.88259247 509.75537407 242.94405991 509.75745964 244.03769302 C509.74365406 248.84834552 509.63628216 253.40291809 508.62193108 258.13142776 C507.96193108 258.13142776 507.30193108 258.13142776 506.62193108 258.13142776 C506.71474358 259.21424026 506.71474358 259.21424026 506.80943108 260.31892776 C506.58446487 263.69342092 505.62323345 265.43736688 503.62193108 268.13142776 C502.96193108 268.13142776 502.30193108 268.13142776 501.62193108 268.13142776 C501.62193108 268.79142776 501.62193108 269.45142776 501.62193108 270.13142776 C500.96193108 270.13142776 500.30193108 270.13142776 499.62193108 270.13142776 C499.62193108 270.79142776 499.62193108 271.45142776 499.62193108 272.13142776 C498.96193108 272.13142776 498.30193108 272.13142776 497.62193108 272.13142776 C497.62193108 272.79142776 497.62193108 273.45142776 497.62193108 274.13142776 C488.46642209 278.95787315 480.89327422 281.29387449 470.51255608 281.88533401 C467.55548578 282.02323576 467.55548578 282.02323576 464.62193108 283.13142776 C463.47834976 286.5621717 463.49144305 289.20089557 463.48390007 292.82060623 C463.48107879 293.5041175 463.47825751 294.18762877 463.47535074 294.8918525 C463.4670022 297.18770542 463.46566622 299.48351012 463.46421623 301.77937698 C463.45954789 303.4237316 463.45440429 305.06808492 463.44882011 306.71243668 C463.43753394 310.25808338 463.42910197 313.80372166 463.42270088 317.34938049 C463.41201403 322.96524806 463.39176439 328.58105551 463.36958122 334.19688797 C463.30768958 350.16820373 463.25374329 366.13951686 463.22056389 382.11091995 C463.20216542 390.92857744 463.17315928 399.74613498 463.13255918 408.56371891 C463.1115669 413.22601184 463.09604309 417.88817919 463.09375191 422.55052185 C463.09158994 426.94514944 463.07556431 431.33951617 463.04936218 435.7340641 C463.04222477 437.33792363 463.04004088 438.94181496 463.04346466 440.54568672 C463.0640982 452.05973489 462.70902346 463.9862738 456.62193108 474.13142776 C455.96193108 474.13142776 455.30193108 474.13142776 454.62193108 474.13142776 C454.29193108 475.45142776 453.96193108 476.77142776 453.62193108 478.13142776 C452.96193108 478.13142776 452.30193108 478.13142776 451.62193108 478.13142776 C450.96193108 479.45142776 450.30193108 480.77142776 449.62193108 482.13142776 C424.83967092 482.31830882 400.05751635 482.45938292 375.27469349 482.54592514 C363.76755977 482.58717636 352.26086386 482.64341616 340.75401115 482.73494339 C330.72461947 482.81468065 320.69554483 482.86629346 310.66584498 482.88413572 C305.35498498 482.89456565 300.04503201 482.91907601 294.73446274 482.97726822 C289.73475787 483.03160967 284.73633269 483.04831256 279.73636055 483.03628922 C277.90252729 483.03848838 276.06865083 483.05438021 274.23507309 483.08507156 C260.39848795 483.30529588 260.39848795 483.30529588 255.9405365 480.35968399 C251.62193108 475.6102929 251.62193108 475.6102929 251.62193108 472.13142776 C250.96193108 472.13142776 250.30193108 472.13142776 249.62193108 472.13142776 C248.03055022 467.95405303 247.4091505 464.59981992 247.62193108 460.13142776 C246.96193108 460.13142776 246.30193108 460.13142776 245.62193108 460.13142776 C245.61162361 459.26112427 245.60131615 458.39082077 245.59069633 457.49414444 C245.49277716 449.29811932 245.39027062 441.10216725 245.28259182 432.90626431 C245.22739356 428.692527 245.17397849 424.47878272 245.12461662 420.26497269 C245.07692742 416.19952013 245.02458291 412.13415187 244.96899033 408.06879997 C244.94858743 406.51666548 244.92987093 404.96450788 244.91285706 403.41233253 C244.88876729 401.24073172 244.85871909 399.06928989 244.82725334 396.89778519 C244.81170906 395.66090454 244.79616478 394.4240239 244.78014946 393.14966202 C244.75363408 390.08298413 244.75363408 390.08298413 243.62193108 387.13142776 C242.63193108 387.13142776 241.64193108 387.13142776 240.62193108 387.13142776 C240.62193108 386.47142776 240.62193108 385.81142776 240.62193108 385.13142776 C220.16193108 385.13142776 199.70193108 385.13142776 178.62193108 385.13142776 C178.62193108 385.79142776 178.62193108 386.45142776 178.62193108 387.13142776 C178.13486687 387.54184311 177.64780266 387.95225845 177.14597893 388.37511063 C174.92247944 390.93747785 175.24338273 392.87684717 175.23716545 396.23250198 C175.22199883 398.12124542 175.22199883 398.12124542 175.2065258 400.04814529 C175.20808174 400.72162884 175.20963768 401.39511238 175.21124077 402.08900452 C175.21573214 404.21023181 175.20167596 406.33063028 175.18284416 408.45177078 C175.14604771 412.96997595 175.13238434 417.48809497 175.12193108 422.00642776 C175.10978416 427.21214797 175.08774086 432.41746682 175.04192924 437.62300873 C175.02855637 439.69059032 175.03249672 441.75763856 175.03733635 443.8252449 C174.95558413 454.26094844 174.10597333 464.99135735 168.62193108 474.13142776 C167.96193108 474.13142776 167.30193108 474.13142776 166.62193108 474.13142776 C165.96193108 475.78142776 165.30193108 477.43142776 164.62193108 479.13142776 C163.96193108 479.13142776 163.30193108 479.13142776 162.62193108 479.13142776 C162.62193108 479.79142776 162.62193108 480.45142776 162.62193108 481.13142776 C159.62408384 482.63035138 156.54195909 482.28670355 153.25335503 482.29205704 C152.48479374 482.29714486 151.71623246 482.30223268 150.92438143 482.30747467 C148.33504111 482.32323877 145.74572877 482.33173465 143.1563549 482.340168 C141.30537042 482.34970332 139.45438773 482.35959433 137.60340691 482.36981583 C131.511947 482.40123972 125.42047327 482.42147271 119.32896233 482.44002151 C117.77529414 482.4449675 117.77529414 482.4449675 116.19023871 482.4500134 C106.42441618 482.4807971 96.65859063 482.50750936 86.89273357 482.52443218 C74.39437595 482.54634244 61.89644776 482.58831542 49.39826185 482.65786976 C40.61432305 482.70509614 31.83050018 482.729364 23.0464384 482.73662907 C17.79839849 482.74158765 12.55084225 482.7566881 7.30294037 482.79637337 C2.36406777 482.83322855 -2.57404472 482.84165301 -7.5130291 482.82836723 C-9.3242484 482.8284212 -11.13550128 482.83872572 -12.94659424 482.86011887 C-28.33460721 483.03214585 -28.33460721 483.03214585 -33.01010323 479.33786392 C-35.37806892 476.13142776 -35.37806892 476.13142776 -35.37806892 472.13142776 C-36.03806892 472.13142776 -36.69806892 472.13142776 -37.37806892 472.13142776 C-37.37806892 471.47142776 -37.37806892 470.81142776 -37.37806892 470.13142776 C-38.03806892 470.13142776 -38.69806892 470.13142776 -39.37806892 470.13142776 C-39.37806892 468.15142776 -39.37806892 466.17142776 -39.37806892 464.13142776 C-40.03806892 464.13142776 -40.69806892 464.13142776 -41.37806892 464.13142776 C-41.43865486 463.49334183 -41.4992408 462.85525589 -41.56166267 462.19783401 C-41.64545174 461.37154495 -41.7292408 460.54525589 -41.81556892 459.69392776 C-41.89677986 458.87021683 -41.9779908 458.04650589 -42.06166267 457.19783401 C-42.16737707 455.14480751 -42.16737707 455.14480751 -43.37806892 454.13142776 C-43.4873656 451.92948247 -43.52499807 449.72397923 -43.53628731 447.51935196 C-43.54369427 446.47063914 -43.54369427 446.47063914 -43.55125087 445.40074021 C-43.56669935 443.04070824 -43.57500624 440.68070363 -43.58339119 438.32063675 C-43.59296395 436.63577913 -43.60297367 434.95092394 -43.61338997 433.26607132 C-43.64051037 428.6774494 -43.66148117 424.08881713 -43.68139195 419.50015903 C-43.70320765 414.71016075 -43.73061787 409.92019466 -43.7574482 405.13022232 C-43.80743499 396.05316079 -43.85235153 386.97608144 -43.89547056 377.89898497 C-43.94479188 367.56781909 -43.99972888 357.23668551 -44.05515015 346.90555084 C-44.16906207 325.64753987 -44.27588095 304.3894981 -44.37806892 283.13142776 C-47.709321 282.02101041 -50.43449405 281.95362878 -53.94056892 281.81892776 C-60.50206697 281.38014446 -65.52997743 280.06038787 -71.37806892 277.13142776 C-72.21724861 276.74728714 -73.0564283 276.36314651 -73.92103767 275.96736526 C-79.97637568 272.98301744 -79.97637568 272.98301744 -81.94056892 268.81892776 C-82.08494392 267.93205276 -82.22931892 267.04517776 -82.37806892 266.13142776 C-83.03806892 266.13142776 -83.69806892 266.13142776 -84.37806892 266.13142776 C-85.19781155 264.09265827 -86.00854962 262.05026701 -86.81556892 260.00642776 C-87.26802986 258.86947464 -87.7204908 257.73252151 -88.18666267 256.56111526 C-90.49011356 249.93019762 -90.53127469 243.57583364 -90.53920174 236.63484573 C-90.54416664 235.5901059 -90.54913155 234.54536606 -90.5542469 233.46896744 C-90.56882344 230.02050994 -90.57566375 226.57209848 -90.58119392 223.12361526 C-90.58694997 220.71713129 -90.59270764 218.31064732 -90.59846687 215.90416336 C-90.60896466 210.85882225 -90.61481504 205.81349701 -90.6183033 200.76814651 C-90.62377926 194.32588379 -90.64779351 187.88383334 -90.67627525 181.44163704 C-90.69496748 176.46913937 -90.70011078 171.49669211 -90.70163918 166.52416229 C-90.70465238 164.15048057 -90.71263551 161.77679946 -90.72582436 159.40315247 C-90.7430193 156.07006665 -90.74097157 152.73749004 -90.73451424 149.40437698 C-90.74372902 148.43771606 -90.7529438 147.47105515 -90.76243782 146.47510147 C-90.70444781 136.8436739 -88.52393847 127.81801158 -84.37806892 119.13142776 C-83.71806892 119.13142776 -83.05806892 119.13142776 -82.37806892 119.13142776 C-82.13056892 118.51267776 -81.88306892 117.89392776 -81.62806892 117.25642776 C-80.17178253 114.7807409 -78.99994386 114.18017774 -76.37806892 113.13142776 C-76.37806892 112.47142776 -76.37806892 111.81142776 -76.37806892 111.13142776 C-75.38806892 111.13142776 -74.39806892 111.13142776 -73.37806892 111.13142776 C-73.37806892 110.47142776 -73.37806892 109.81142776 -73.37806892 109.13142776 C-72.05806892 109.13142776 -70.73806892 109.13142776 -69.37806892 109.13142776 C-69.37806892 108.47142776 -69.37806892 107.81142776 -69.37806892 107.13142776 C-63.72361492 104.97048993 -58.2729892 104.46222725 -52.30385017 103.92049026 C-47.87967526 103.6127462 -47.87967526 103.6127462 -44.37806892 101.13142776 C-44.05239509 98.30595068 -44.05239509 98.30595068 -44.07509041 94.95344925 C-44.05844841 93.65547913 -44.04180641 92.357509 -44.02466011 91.02020645 C-44.01609942 89.59764517 -44.00760178 88.17508352 -43.99916267 86.75252151 C-43.98299486 85.30044809 -43.96581563 83.84838559 -43.94766426 82.3963356 C-43.90192786 78.57122718 -43.86714587 74.74610436 -43.83546638 70.92085648 C-43.78363171 64.79387055 -43.71860269 58.66704497 -43.64725113 52.54025841 C-43.62434664 50.39475428 -43.60812241 48.24927073 -43.5925312 46.10370255 C-43.57904137 44.80888458 -43.56555153 43.51406662 -43.55165291 42.18001175 C-43.5373851 40.46031425 -43.5373851 40.46031425 -43.52282906 38.7058754 C-43.37806892 36.13142776 -43.37806892 36.13142776 -42.37806892 35.13142776 C-42.14782351 33.15789562 -41.91857938 31.1842312 -41.69838142 29.20955276 C-41.30494929 26.65704182 -40.47143306 24.46393792 -39.37806892 22.13142776 C-38.71806892 22.13142776 -38.05806892 22.13142776 -37.37806892 22.13142776 C-37.37806892 20.81142776 -37.37806892 19.49142776 -37.37806892 18.13142776 C-36.71806892 18.13142776 -36.05806892 18.13142776 -35.37806892 18.13142776 C-35.29556892 17.34767776 -35.21306892 16.56392776 -35.12806892 15.75642776 C-34.37806892 13.13142776 -34.37806892 13.13142776 -32.31556892 11.81892776 C-31.67619392 11.59205276 -31.03681892 11.36517776 -30.37806892 11.13142776 C-30.37806892 10.47142776 -30.37806892 9.81142776 -30.37806892 9.13142776 C-27.37806892 7.13142776 -27.37806892 7.13142776 -24.37806892 7.13142776 C-24.37806892 6.47142776 -24.37806892 5.81142776 -24.37806892 5.13142776 C-22.48353671 4.48178753 -20.58738244 3.83687662 -18.69056892 3.19392776 C-17.10695564 2.65445511 -17.10695564 2.65445511 -15.49135017 2.10408401 C-10.20843496 0.45358729 -5.54551918 0.00526238 0 0 Z M-15.37806892 16.13142776 C-15.37806892 16.79142776 -15.37806892 17.45142776 -15.37806892 18.13142776 C-15.97619392 18.35830276 -16.57431892 18.58517776 -17.19056892 18.81892776 C-20.11214625 20.57187416 -20.92142127 22.03768651 -22.37806892 25.13142776 C-22.66649385 28.0340341 -22.79552324 30.721672 -22.77870369 33.62190628 C-22.78568275 34.46477188 -22.79266182 35.30763748 -22.79985237 36.17604446 C-22.81980214 38.95424324 -22.81932882 41.73207005 -22.81947517 44.51033401 C-22.83124819 46.444177 -22.84461223 48.3780109 -22.85949898 50.31183243 C-22.89567419 55.39837831 -22.91588426 60.48484364 -22.93104744 65.57149124 C-22.95588525 73.71670106 -22.9954943 81.86173287 -23.052948 90.00677681 C-23.06928311 92.85188194 -23.0730551 95.69681922 -23.07596016 98.54196548 C-23.0857357 100.28476121 -23.09599886 102.02755429 -23.10682869 103.77034378 C-23.10427574 104.5616217 -23.10172279 105.35289963 -23.09909248 106.16815567 C-23.16346854 113.0536404 -23.16346854 113.0536404 -25.37806892 116.13142776 C-28.19468932 117.53973796 -30.49028267 117.18996328 -33.63588142 117.12361526 C-34.9017408 117.10685745 -36.16760017 117.09009964 -37.47181892 117.07283401 C-40.13637813 117.03201027 -42.79971477 116.97701667 -45.46400642 116.91658401 C-53.65646915 116.82537239 -60.24473201 116.82475824 -66.87806892 122.13142776 C-68.67806892 124.1147611 -68.67806892 124.1147611 -68.37806892 127.13142776 C-69.36806892 127.62642776 -69.36806892 127.62642776 -70.37806892 128.13142776 C-71.25872432 131.37725283 -71.50708426 134.46573288 -71.52523994 137.81692886 C-71.53239525 138.7293837 -71.53955055 139.64183853 -71.54692268 140.58194351 C-71.54961159 141.57062927 -71.55230049 142.55931503 -71.55507088 143.57796097 C-71.56164207 144.62897995 -71.56821327 145.67999893 -71.5749836 146.76286697 C-71.59467125 150.23598176 -71.60636796 153.70905343 -71.61635017 157.18220901 C-71.6204257 158.37018774 -71.62450123 159.55816647 -71.62870026 160.78214455 C-71.64953973 167.06775996 -71.66385174 173.35335366 -71.67323494 179.63899612 C-71.68430642 186.12546253 -71.71872141 192.61158657 -71.75840664 199.09793186 C-71.78456363 204.09171558 -71.7929259 209.08541749 -71.79651642 214.07926369 C-71.80138318 216.47021871 -71.81299964 218.86117005 -71.83155441 221.25205803 C-71.85592968 224.60055153 -71.85498353 227.94815571 -71.84803963 231.29671097 C-71.86725471 232.77063057 -71.86725471 232.77063057 -71.88685799 234.27432632 C-71.83601393 241.01745043 -70.70465318 246.71541888 -65.85988522 251.69042301 C-61.21614882 255.67433376 -58.5712604 256.26804637 -52.54213142 256.41267776 C-51.52849022 256.4402919 -51.52849022 256.4402919 -50.49437141 256.4684639 C-48.33069291 256.52724611 -46.16693448 256.58002155 -44.00306892 256.63142776 C-41.16176293 256.69925903 -38.32069706 256.77299853 -35.47963142 256.85017776 C-34.21457771 256.88047073 -32.949524 256.9107637 -31.64613533 256.94197464 C-29.00505193 257.09508092 -26.89943694 257.44601399 -24.37806892 258.13142776 C-24.37660236 259.11357002 -24.3751358 260.09571228 -24.3736248 261.10761642 C-24.33702118 285.01116456 -24.2775602 308.91457268 -24.19416618 332.81800461 C-24.15436588 344.37755947 -24.12197838 355.93704616 -24.10707283 367.49666214 C-24.0940615 377.57265036 -24.06710996 387.64848864 -24.02345586 397.72439241 C-24.00082953 403.05896258 -23.98515896 408.39334772 -23.98618507 413.72797012 C-23.98693098 418.75131483 -23.96900769 423.77425033 -23.93690109 428.79748917 C-23.92839761 430.63887541 -23.92665521 432.48030753 -23.93226624 434.32170486 C-23.938921 436.84172189 -23.92095128 439.36044256 -23.89705086 441.88032913 C-23.90481128 442.60408847 -23.91257169 443.32784781 -23.92056727 444.07353926 C-23.82117769 450.01855149 -22.0629476 455.35617673 -17.86007667 459.70051527 C-13.44494057 463.4601284 -11.03199532 464.25681028 -5.3314991 464.27186966 C-3.39671196 464.28043488 -3.39671196 464.28043488 -1.42283821 464.28917313 C0.01493635 464.29041856 1.45271102 464.29154364 2.89048576 464.29256058 C4.39826899 464.29718777 5.90605103 464.3022123 7.41383171 464.30760574 C11.51729061 464.32074304 15.62073314 464.32717752 19.72420979 464.3316164 C22.28750327 464.33454556 24.85079226 464.33865012 27.41408348 464.34312057 C35.43273929 464.35680028 43.45138486 464.36646408 51.47005153 464.37032247 C60.72843879 464.37480167 69.9866783 464.39234115 79.24502063 464.42132306 C86.39923873 464.44294114 93.55341527 464.45302685 100.70766568 464.45436358 C104.98133789 464.45541171 109.2548713 464.46132089 113.52850914 464.4791832 C117.55042969 464.49566564 121.57210716 464.49781861 125.59404945 464.48904419 C127.06864002 464.48827385 128.54324366 464.49261619 130.01780128 464.50250244 C132.03430329 464.51522696 134.050903 464.5075516 136.06742668 464.49892044 C137.19494724 464.500387 138.3224678 464.50185356 139.48415565 464.50336456 C143.73990865 463.99890808 147.1200126 462.53345618 150.26646233 459.59627151 C154.25356276 454.38237095 154.77766722 451.42804168 154.8113842 444.98152542 C154.82382416 443.71788414 154.82382416 443.71788414 154.83651543 442.42871475 C154.85393599 440.59589024 154.86909729 438.76304321 154.88229179 436.93018341 C154.90329007 434.03043891 154.93031646 431.13080701 154.95896721 428.23112869 C155.01872205 422.0729382 155.07083257 415.91469536 155.12193108 409.75642776 C155.18114877 402.62853143 155.24347413 395.5006903 155.31381035 388.37289429 C155.34038753 385.51456084 155.36120282 382.65622189 155.38181877 379.79784012 C155.39842414 378.04526378 155.41529619 376.29268995 155.43247795 374.54011917 C155.43875458 373.34613258 155.43875458 373.34613258 155.445158 372.12802505 C155.48487809 368.63076347 155.68613519 365.4973056 156.62193108 362.13142776 C159.42949044 361.33596289 161.91981055 361.00596787 164.83445549 361.00444412 C165.66717476 361.0016243 166.49989403 360.99880447 167.35784721 360.9958992 C168.26290504 360.99792343 169.16796288 360.99994766 170.1004467 361.00203323 C171.54009033 360.99940475 171.54009033 360.99940475 173.00881767 360.99672318 C176.18195719 360.99232125 179.35504099 360.99523684 182.52818108 360.99861526 C184.7324862 360.99794175 186.93679125 360.99697132 189.14109612 360.99571609 C193.76117981 360.99424137 198.38124416 360.99638647 203.00132561 361.00105667 C208.92645367 361.00675381 214.85153643 361.00347361 220.77666283 360.99748421 C225.32849787 360.99387254 229.88032215 360.99501998 234.43215752 360.997612 C236.61706358 360.99827959 238.80197061 360.9974587 240.98687553 360.99513245 C244.03908187 360.99259603 247.0912146 360.99646057 250.14341545 361.00203323 C251.04847328 361.000009 251.95353111 360.99798477 252.88601494 360.9958992 C254.13509384 361.00012894 254.13509384 361.00012894 255.40940666 361.00444412 C256.49117306 361.00500966 256.49117306 361.00500966 257.59479332 361.00558662 C259.70959285 361.13686965 261.58699547 361.55487013 263.62193108 362.13142776 C264.76897769 366.25047292 264.76662112 370.22824829 264.76377678 374.47664261 C264.76898842 375.73590309 264.76898842 375.73590309 264.77430534 377.02060318 C264.78164939 378.84139598 264.78700196 380.66219765 264.79059601 382.48300171 C264.79777281 385.3666672 264.81344798 388.25016367 264.83193779 391.13377762 C264.88435417 399.3318642 264.93239011 407.52985683 264.94785881 415.72810745 C264.95794493 420.74496511 264.98728294 425.76139515 265.02917862 430.7780838 C265.04148185 432.68777735 265.04661111 434.5975313 265.04438019 436.50726318 C265.04202491 439.18111386 265.06420943 441.85373895 265.09190178 444.52742386 C265.08530037 445.31308228 265.07869896 446.09874069 265.07189751 446.90820694 C265.15985556 452.09002304 266.2428098 454.99773697 269.62193108 459.13142776 C274.23418817 463.19460663 276.56691917 464.2557507 282.6685009 464.27186966 C284.60328804 464.28043488 284.60328804 464.28043488 286.57716179 464.28917313 C288.01493635 464.29041856 289.45271102 464.29154364 290.89048576 464.29256058 C292.39826899 464.29718777 293.90605103 464.3022123 295.41383171 464.30760574 C299.51729061 464.32074304 303.62073314 464.32717752 307.72420979 464.3316164 C310.28750327 464.33454556 312.85079226 464.33865012 315.41408348 464.34312057 C323.43273929 464.35680028 331.45138486 464.36646408 339.47005153 464.37032247 C348.72843879 464.37480167 357.9866783 464.39234115 367.24502063 464.42132306 C374.39923873 464.44294114 381.55341527 464.45302685 388.70766568 464.45436358 C392.98133789 464.45541171 397.2548713 464.46132089 401.52850914 464.4791832 C405.55042969 464.49566564 409.57210716 464.49781861 413.59404945 464.48904419 C415.06864002 464.48827385 416.54324366 464.49261619 418.01780128 464.50250244 C420.03430329 464.51522696 422.050903 464.5075516 424.06742668 464.49892044 C425.19494724 464.500387 426.3224678 464.50185356 427.48415565 464.50336456 C431.73990865 463.99890808 435.1200126 462.53345618 438.26646233 459.59627151 C442.10148999 454.58123533 442.77092575 451.85810662 442.77342033 445.6667366 C442.77765275 444.88789152 442.78188516 444.10904643 442.78624582 443.30659997 C442.79931841 440.68261493 442.80530727 438.05866031 442.8113842 435.43465042 C442.819323 433.55909411 442.82771066 431.68353966 442.83651543 429.80798721 C442.85460043 425.76193273 442.86960611 421.71588241 442.88229179 417.66980743 C442.90247585 411.27518215 442.93013382 404.88060284 442.95896721 398.48601151 C443.01912036 384.90950511 443.07092233 371.33297113 443.12193108 357.75642776 C443.17698671 343.10817749 443.23346969 328.45994115 443.29947996 313.81173551 C443.3278546 307.45204182 443.35144194 301.09235353 443.37140465 294.73262811 C443.38478197 290.77838576 443.40219525 286.82416872 443.42071533 282.86994743 C443.42847816 281.03331708 443.43454477 279.19667866 443.43880844 277.36003685 C443.44484758 274.85667677 443.45689247 272.35341524 443.47044182 269.85008621 C443.4708858 268.75485293 443.4708858 268.75485293 443.47133875 267.63749373 C443.49526318 264.32759605 443.59875335 261.29688533 444.62193108 258.13142776 C448.21675305 257.02284827 451.61605386 256.97545314 455.36411858 256.92049026 C456.67767326 256.89213089 457.99122795 256.86377151 459.34458733 256.83455276 C461.42026719 256.7933628 463.49571423 256.75644323 465.57163811 256.73006058 C467.58601781 256.70228924 469.60010379 256.65533243 471.61411858 256.60799026 C472.81407463 256.58817093 474.01403069 256.56835159 475.25034904 256.54793167 C479.61244348 256.00906613 483.03376813 254.61396467 486.26646233 251.59627151 C489.3086393 247.61804008 490.73961579 245.56227107 490.79360771 240.5966835 C490.80628685 239.64194641 490.81896599 238.68720932 490.83202934 237.7035408 C490.8409269 236.65260239 490.84982445 235.60166397 490.85899162 234.51887894 C490.8786599 232.86262749 490.8786599 232.86262749 490.89872551 231.17291641 C490.94065409 227.50677895 490.97508473 223.84061951 491.00864983 220.17439651 C491.03429525 217.63332356 491.06007929 215.09225199 491.08599663 212.55118179 C491.13903496 207.21719828 491.1879874 201.88319537 491.2344799 196.54915237 C491.2883255 190.38702309 491.35342875 184.22508249 491.42381829 178.06312197 C491.49098472 172.13438622 491.54683745 166.20557857 491.59844208 160.27668571 C491.62187032 157.75485143 491.64863072 155.23304585 491.67876053 152.71128273 C491.71987542 149.18491667 491.74808483 145.65867245 491.77305412 142.13216019 C491.78802437 141.08729446 491.80299461 140.04242874 491.8184185 138.96590042 C491.82263817 138.00270386 491.82685783 137.03950729 491.83120537 136.04712296 C491.83912448 135.21365436 491.84704359 134.38018576 491.85520267 133.52146053 C491.58710646 130.77462495 490.74991027 128.63760553 489.62193108 126.13142776 C488.96193108 126.13142776 488.30193108 126.13142776 487.62193108 126.13142776 C487.56005608 125.26517776 487.56005608 125.26517776 487.49693108 124.38142776 C486.14942197 120.91640435 483.79909891 119.90330983 480.62193108 118.13142776 C476.73838767 117.09072888 473.155126 117.06474573 469.14927483 117.17439651 C467.92015373 117.19566605 466.69103264 117.21693558 465.42466545 117.23884964 C462.84366907 117.29232152 460.2628886 117.3574648 457.68247795 117.43416214 C456.45464592 117.45156448 455.22681389 117.46896683 453.96177483 117.48689651 C452.28136101 117.52786453 452.28136101 117.52786453 450.56699944 117.56966019 C447.62193108 117.13142776 447.62193108 117.13142776 445.46426201 115.62759781 C442.87705679 112.12219927 443.10707377 108.93943049 443.19956779 104.75447464 C443.20219627 103.91175507 443.20482475 103.06903549 443.20753288 102.20077896 C443.22050899 99.41678731 443.2613679 96.63389691 443.30161858 93.85017776 C443.31416102 91.91492784 443.32464067 89.97966353 443.33314323 88.04439163 C443.35975191 82.94936475 443.40861602 77.85481715 443.46385002 72.76002884 C443.55007746 64.60517255 443.60952442 56.45018756 443.65593147 48.29501724 C443.67638413 45.44534388 443.7104843 42.59606143 443.745924 39.74654007 C443.75958044 38.00049057 443.7727979 36.25443756 443.78550529 34.50838089 C443.79898003 33.71553192 443.81245476 32.92268295 443.82633781 32.10580826 C443.84212924 28.29380473 443.78577042 25.35920649 441.62193108 22.13142776 C440.96193108 22.13142776 440.30193108 22.13142776 439.62193108 22.13142776 C439.56005608 21.26517776 439.56005608 21.26517776 439.49693108 20.38142776 C438.13226421 16.87228439 435.86586965 15.92242416 432.62193108 14.13142776 C429.92539005 13.7562863 427.64683126 13.5952699 424.9607048 13.63364983 C423.82766091 13.62582797 423.82766091 13.62582797 422.67172724 13.6178481 C420.13793253 13.60524463 417.6051287 13.62117432 415.07136345 13.63695145 C413.23762079 13.63377508 411.40388047 13.62884769 409.57014668 13.62231863 C404.52901253 13.60948052 399.48819918 13.62163617 394.4470861 13.63784719 C389.01147093 13.65099319 383.57589186 13.64110603 378.14027214 13.63408279 C367.49162119 13.62399412 356.84309436 13.6352876 346.19445883 13.6537834 C333.80100287 13.67453731 321.40757385 13.6744114 309.01410379 13.67343824 C286.23845513 13.67240644 263.46286732 13.69248738 240.68724074 13.72244312 C219.88860596 13.74969775 199.09001716 13.7621654 178.29136467 13.7608223 C176.95561913 13.76074147 175.61987359 13.76066075 174.28412805 13.76058014 C173.62376522 13.76053944 172.96340239 13.76049873 172.28302857 13.7604568 C147.1969102 13.75893547 122.11081552 13.77024054 97.02470424 13.788642 C88.37928529 13.79468169 79.73387031 13.79680194 71.08844948 13.7977066 C60.55877233 13.79906904 50.02913173 13.80797284 39.4994701 13.82637222 C34.12386275 13.83562372 28.74830224 13.84169349 23.37268639 13.83918381 C18.45671786 13.83699994 13.54085307 13.84399226 8.6249062 13.85848086 C6.84171897 13.8621188 5.05852107 13.86235719 3.27533339 13.85894628 C0.86058949 13.85483704 -1.55381101 13.86290748 -3.96852493 13.87415886 C-4.66863117 13.87004822 -5.36873741 13.86593758 -6.09005898 13.86170238 C-9.68862591 13.89254969 -12.3143334 14.17003411 -15.37806892 16.13142776 Z " fill="#020202" transform="translate(90.3780689239502,4.868572235107422)"/>
<path d="M0 0 C11.59896183 4.62535288 23.19335222 9.2579616 34.7578125 13.96875 C35.58894058 14.30700302 36.42006866 14.64525604 37.27638245 14.99375916 C43.98952703 17.72597059 43.98952703 17.72597059 47.30819702 19.08303833 C49.6693706 20.04856229 52.03183491 21.01086584 54.39453125 21.97265625 C55.10396881 22.26390381 55.81340637 22.55515137 56.54434204 22.85522461 C59.69629003 24.13532057 62.68922299 25.17230575 66 26 C66 33.59 66 41.18 66 49 C55.37091101 54.05024045 44.55773525 58.54530458 33.65991211 62.97827148 C30.67495484 64.19260359 27.69183712 65.41136807 24.70898438 66.63085938 C22.78916737 67.41431952 20.86924903 68.19753143 18.94921875 68.98046875 C18.06884445 69.33989059 17.18847015 69.69931244 16.28141785 70.06962585 C15.443069 70.41040665 14.60472015 70.75118744 13.7409668 71.10229492 C12.65394722 71.54480843 12.65394722 71.54480843 11.54496765 71.9962616 C8.04735008 73.37572631 4.52042981 74.67983882 1 76 C1 68.08 1 60.16 1 52 C9.96393557 48.07060358 19.07536622 44.8250867 28.34008789 41.6796875 C29.31453857 41.34710938 30.28898926 41.01453125 31.29296875 40.671875 C32.1749292 40.3737793 33.05688965 40.07568359 33.96557617 39.76855469 C35.96419582 39.17300046 35.96419582 39.17300046 37 38 C35.95021973 37.58113525 34.90043945 37.16227051 33.81884766 36.73071289 C29.9309668 35.17917553 26.0435397 33.62650412 22.15625 32.07348633 C20.47245478 31.40097514 18.788536 30.72877322 17.10449219 30.05688477 C14.6865246 29.09211855 12.26900083 28.12624775 9.8515625 27.16015625 C9.0963028 26.85908463 8.34104309 26.558013 7.56289673 26.24781799 C2.22774341 24.11387171 2.22774341 24.11387171 0 23 C0 15.41 0 7.82 0 0 Z " fill="#030101" transform="translate(128,128)"/>
<path d="M0 0 C0 7.26 0 14.52 0 22 C-8.27824516 25.51217183 -16.60021149 28.77255057 -25.0625 31.8125 C-26.7321582 32.42254883 -26.7321582 32.42254883 -28.43554688 33.04492188 C-29.49966797 33.42841797 -30.56378906 33.81191406 -31.66015625 34.20703125 C-32.61543213 34.5522583 -33.57070801 34.89748535 -34.55493164 35.25317383 C-37 36 -37 36 -40 36 C-40 36.66 -40 37.32 -40 38 C-38.84628906 38.21398437 -37.69257813 38.42796875 -36.50390625 38.6484375 C-29.11017865 40.29148808 -22.04617139 43.05124065 -14.9375 45.625 C-13.4852038 46.14632879 -12.03273111 46.6671662 -10.58007812 47.1875 C-7.05096375 48.45178056 -3.52569853 49.7260618 0 51 C0 58.92 0 66.84 0 75 C-10.13102894 71.62299035 -10.13102894 71.62299035 -14.14453125 69.94140625 C-15.51134033 69.37087524 -15.51134033 69.37087524 -16.90576172 68.78881836 C-17.86498535 68.3841333 -18.82420898 67.97944824 -19.8125 67.5625 C-20.82844238 67.13654541 -21.84438477 66.71059082 -22.89111328 66.27172852 C-31.40045361 62.69497556 -39.88996688 59.07147096 -48.375 55.4375 C-49.30416733 55.03955734 -49.30416733 55.03955734 -50.25210571 54.63357544 C-60.62214352 50.18892824 -60.62214352 50.18892824 -63 49 C-63 41.41 -63 33.82 -63 26 C-53.66586653 21.62873327 -44.26413825 17.52055328 -34.75 13.5625 C-33.38121495 12.99141533 -32.01248163 12.42020664 -30.64379883 11.84887695 C-27.97298008 10.73459899 -25.30148201 9.62197406 -22.62939453 8.51074219 C-19.51007126 7.21231811 -16.39315072 5.90839302 -13.27734375 4.6015625 C-11.74753332 3.96321208 -10.21760002 3.32515598 -8.6875 2.6875 C-8.01364258 2.40398682 -7.33978516 2.12047363 -6.64550781 1.82836914 C-2.22995786 0 -2.22995786 0 0 0 Z " fill="#020101" transform="translate(473,130)"/>
<path d="M0 0 C3.39789016 4.53052021 3.41294261 7.07872519 3.34057617 12.44042969 C3.34123329 13.7141468 3.34123329 13.7141468 3.34190369 15.01359558 C3.33981588 17.81659036 3.31648524 20.61898488 3.29296875 23.421875 C3.28737277 25.36671624 3.28310268 27.31156171 3.28010559 29.25640869 C3.26865701 34.37257586 3.23918962 39.4884871 3.20599365 44.60455322 C3.17529312 49.82617735 3.16160028 55.04784287 3.14648438 60.26953125 C3.11432002 70.51313321 3.06312341 80.75654531 3 91 C2.01 90.67 1.02 90.34 0 90 C0 60.3 0 30.6 0 0 Z " fill="#3A3A3A" transform="translate(533,28)"/>
<path d="M0 0 C4.21912747 0.4794463 6.79663178 1.16625119 10 4 C7.03 4.66 4.06 5.32 1 6 C1.33 5.34 1.66 4.68 2 4 C2.99 4 3.98 4 5 4 C5 3.34 5 2.68 5 2 C3.35 1.67 1.7 1.34 0 1 C0 0.67 0 0.34 0 0 Z " fill="#E27B5A" transform="translate(157,163)"/>
</svg>
