<?xml version="1.0" encoding="UTF-8"?>
<svg version="1.1" xmlns="http://www.w3.org/2000/svg" viewBox="0 0 600 510" width="600" height="510">
<style>
    @keyframes wobble {
      0%, 100% { transform: rotate(0deg); }
      12% { transform: rotate(-2deg); }
      28% { transform: rotate(1.8deg); }
      44% { transform: rotate(-1.2deg); }
      60% { transform: rotate(2deg); }
      76% { transform: rotate(-1.5deg); }
      90% { transform: rotate(0.8deg); }
    }
    @keyframes bounce {
      0%, 100% { transform: translateY(0); }
      50% { transform: translateY(-14px); }
    }
    @keyframes blink {
      0%, 38%, 44%, 80%, 86%, 100% { transform: scaleY(1); }
      41% { transform: scaleY(0.08); }
      83% { transform: scaleY(0.08); }
    }
    @keyframes twitch {
      0%, 65%, 78%, 100% { transform: translate(0,0) rotate(0deg); }
      68% { transform: translate(4px,-3px) rotate(12deg); }
      71% { transform: translate(-3px,2px) rotate(-8deg); }
      74% { transform: translate(2px,-1px) rotate(5deg); }
    }
    @keyframes glitch-color {
      0%, 93%, 100% { opacity: 1; }
      94% { opacity: 0.7; }
      95% { opacity: 1; }
      96% { opacity: 0.85; }
      97% { opacity: 1; }
    }
    @keyframes shadow-pulse {
      0%, 100% { transform: scaleX(1) translateY(0); opacity: 0.12; }
      50% { transform: scaleX(0.88) translateY(14px); opacity: 0.05; }
    }
    .whole-character {
      animation: wobble 4.5s ease-in-out infinite;
      transform-origin: 300px 244px;
    }
    .bounce-group {
      animation: bounce 1.6s ease-in-out infinite;
    }
    .body-layers {
      animation: glitch-color 7s steps(1) infinite;
    }
    .eye-left {
      animation: blink 4.5s ease-in-out infinite;
      transform-origin: 178px 178px;
    }
    .eye-right-outer {
      animation: twitch 5.5s ease-in-out infinite;
      transform-origin: 503px 180px;
    }
    .eye-right-inner {
      animation: blink 4.5s ease-in-out infinite;
      transform-origin: 503px 180px;
    }
    .shadow-el {
      animation: shadow-pulse 1.6s ease-in-out infinite;
      transform-origin: 300px 495px;
    }
  </style>

  <!-- Ground shadow -->
  <ellipse class="shadow-el" cx="300" cy="497" rx="130" ry="9" fill="#000" opacity="0.12"/>

  <g class="whole-character">
    <g class="bounce-group">

      <g class="body-layers">
        <!-- Body with white areas punched out via evenodd -->
        <path d="M0 0 C0.73691621 -0.00205263 1.47383243 -0.00410527 2.23307943 -0.0062201 C4.70989155 -0.01188821 7.18664803 -0.01043308 9.6634655 -0.00901413 C11.45422997 -0.01159788 13.24499386 -0.01461106 15.03575695 -0.01801753 C19.96291094 -0.02608972 24.89005037 -0.02787723 29.8172102 -0.028615 C35.12890641 -0.03046518 40.44059507 -0.03801236 45.75228691 -0.04475021 C57.37012646 -0.05833579 68.98796256 -0.06435865 80.60580873 -0.06876087 C87.85959541 -0.07152301 95.11338075 -0.07576032 102.36716652 -0.08026505 C122.44928529 -0.09245819 142.531403 -0.10275729 162.61352539 -0.10614014 C164.54172755 -0.10646949 164.54172755 -0.10646949 166.50888329 -0.10680549 C167.79743511 -0.10702377 169.08598693 -0.10724204 170.41358578 -0.10746694 C173.02470088 -0.1079104 175.63581598 -0.10835697 178.24693108 -0.10880661 C179.54213558 -0.10902804 180.83734008 -0.10924947 182.17179321 -0.10947761 C203.1576383 -0.11342542 224.14344867 -0.13087873 245.12928034 -0.15416613 C266.67317955 -0.1778799 288.21706134 -0.19034201 309.76097381 -0.19150805 C321.85783522 -0.19242482 333.95465138 -0.19817751 346.05150032 -0.21632767 C356.35263054 -0.23172899 366.65370154 -0.23684892 376.95484109 -0.22858956 C382.20982468 -0.22468315 387.46468899 -0.22561234 392.7196579 -0.23964691 C397.53367053 -0.25238613 402.34747427 -0.25118803 407.16148661 -0.2390562 C408.89974678 -0.23709925 410.63802175 -0.24017755 412.37626113 -0.24890056 C421.54788966 -0.29199949 429.85811903 0.09192311 438.62193108 3.13142776 C440.0154857 3.53521016 441.41109981 3.93201126 442.80943108 4.31892776 C444.20161858 4.72111526 444.20161858 4.72111526 445.62193108 5.13142776 C445.62193108 5.79142776 445.62193108 6.45142776 445.62193108 7.13142776 C446.20974358 7.38666214 446.79755608 7.64189651 447.40318108 7.90486526 C453.77986257 11.43000257 458.07627557 18.47730898 460.62193108 25.13142776 C462.78997544 32.70243148 462.92753653 40.27574168 462.95745659 48.10420227 C462.96586151 50.23178862 462.9864627 52.35896894 463.0099926 54.48643875 C463.06592283 59.76024561 463.10167504 65.03415022 463.13761711 70.30812454 C463.16888993 74.78869839 463.20805704 79.2690663 463.25787163 83.74947357 C463.27787081 85.84116535 463.28623973 87.93269648 463.29417229 90.02446365 C463.30758659 91.29323349 463.3210009 92.56200333 463.3348217 93.86922073 C463.34211296 94.98489426 463.34940422 96.10056778 463.35691643 97.25004959 C463.61639219 100.07120611 464.15980853 101.73646377 465.62193108 104.13142776 C466.92130608 104.11080276 468.22068108 104.09017776 469.55943108 104.06892776 C474.31575432 104.06137805 478.90582061 104.53255659 483.62193108 105.13142776 C483.62193108 105.79142776 483.62193108 106.45142776 483.62193108 107.13142776 C485.60193108 107.13142776 487.58193108 107.13142776 489.62193108 107.13142776 C489.62193108 107.79142776 489.62193108 108.45142776 489.62193108 109.13142776 C490.94193108 109.13142776 492.26193108 109.13142776 493.62193108 109.13142776 C493.62193108 109.79142776 493.62193108 110.45142776 493.62193108 111.13142776 C494.28193108 111.13142776 494.94193108 111.13142776 495.62193108 111.13142776 C495.62193108 111.79142776 495.62193108 112.45142776 495.62193108 113.13142776 C496.21618889 113.39439651 496.8104467 113.65736526 497.42271233 113.92830276 C501.0011198 115.88593954 503.37050218 118.76473998 505.62193108 122.13142776 C506.49693108 125.56892776 506.49693108 125.56892776 506.62193108 128.13142776 C507.28193108 128.13142776 507.94193108 128.13142776 508.62193108 128.13142776 C509.71103202 134.29749313 509.76327013 140.31959273 509.75132561 146.57112503 C509.75307793 147.70367722 509.75483025 148.8362294 509.75663567 150.00310135 C509.76102535 153.73469464 509.75812652 157.46624027 509.75474358 161.19783401 C509.7554174 163.79662459 509.75638808 166.39541511 509.75764275 168.99420547 C509.75911577 174.43537938 509.75707352 179.87653547 509.75230217 185.31770706 C509.74685796 191.59853249 509.74862576 197.87932546 509.75412858 204.16015011 C509.75922133 210.21658434 509.75867224 216.27300275 509.75574684 222.32943916 C509.75508 224.90065325 509.75589753 227.47186817 509.75822639 230.04308128 C509.76076666 233.63578484 509.75689295 237.22842611 509.75132561 240.82112503 C509.75334984 241.88259247 509.75537407 242.94405991 509.75745964 244.03769302 C509.74365406 248.84834552 509.63628216 253.40291809 508.62193108 258.13142776 C507.96193108 258.13142776 507.30193108 258.13142776 506.62193108 258.13142776 C506.71474358 259.21424026 506.71474358 259.21424026 506.80943108 260.31892776 C506.58446487 263.69342092 505.62323345 265.43736688 503.62193108 268.13142776 C502.96193108 268.13142776 502.30193108 268.13142776 501.62193108 268.13142776 C501.62193108 268.79142776 501.62193108 269.45142776 501.62193108 270.13142776 C500.96193108 270.13142776 500.30193108 270.13142776 499.62193108 270.13142776 C499.62193108 270.79142776 499.62193108 271.45142776 499.62193108 272.13142776 C498.96193108 272.13142776 498.30193108 272.13142776 497.62193108 272.13142776 C497.62193108 272.79142776 497.62193108 273.45142776 497.62193108 274.13142776 C488.46642209 278.95787315 480.89327422 281.29387449 470.51255608 281.88533401 C467.55548578 282.02323576 467.55548578 282.02323576 464.62193108 283.13142776 C463.47834976 286.5621717 463.49144305 289.20089557 463.48390007 292.82060623 C463.48107879 293.5041175 463.47825751 294.18762877 463.47535074 294.8918525 C463.4670022 297.18770542 463.46566622 299.48351012 463.46421623 301.77937698 C463.45954789 303.4237316 463.45440429 305.06808492 463.44882011 306.71243668 C463.43753394 310.25808338 463.42910197 313.80372166 463.42270088 317.34938049 C463.41201403 322.96524806 463.39176439 328.58105551 463.36958122 334.19688797 C463.30768958 350.16820373 463.25374329 366.13951686 463.22056389 382.11091995 C463.20216542 390.92857744 463.17315928 399.74613498 463.13255918 408.56371891 C463.1115669 413.22601184 463.09604309 417.88817919 463.09375191 422.55052185 C463.09158994 426.94514944 463.07556431 431.33951617 463.04936218 435.7340641 C463.04222477 437.33792363 463.04004088 438.94181496 463.04346466 440.54568672 C463.0640982 452.05973489 462.70902346 463.9862738 456.62193108 474.13142776 C455.96193108 474.13142776 455.30193108 474.13142776 454.62193108 474.13142776 C454.29193108 475.45142776 453.96193108 476.77142776 453.62193108 478.13142776 C452.96193108 478.13142776 452.30193108 478.13142776 451.62193108 478.13142776 C450.96193108 479.45142776 450.30193108 480.77142776 449.62193108 482.13142776 C424.83967092 482.31830882 400.05751635 482.45938292 375.27469349 482.54592514 C363.76755977 482.58717636 352.26086386 482.64341616 340.75401115 482.73494339 C330.72461947 482.81468065 320.69554483 482.86629346 310.66584498 482.88413572 C305.35498498 482.89456565 300.04503201 482.91907601 294.73446274 482.97726822 C289.73475787 483.03160967 284.73633269 483.04831256 279.73636055 483.03628922 C277.90252729 483.03848838 276.06865083 483.05438021 274.23507309 483.08507156 C260.39848795 483.30529588 260.39848795 483.30529588 255.9405365 480.35968399 C251.62193108 475.6102929 251.62193108 475.6102929 251.62193108 472.13142776 C250.96193108 472.13142776 250.30193108 472.13142776 249.62193108 472.13142776 C248.03055022 467.95405303 247.4091505 464.59981992 247.62193108 460.13142776 C246.96193108 460.13142776 246.30193108 460.13142776 245.62193108 460.13142776 C245.61162361 459.26112427 245.60131615 458.39082077 245.59069633 457.49414444 C245.49277716 449.29811932 245.39027062 441.10216725 245.28259182 432.90626431 C245.22739356 428.692527 245.17397849 424.47878272 245.12461662 420.26497269 C245.07692742 416.19952013 245.02458291 412.13415187 244.96899033 408.06879997 C244.94858743 406.51666548 244.92987093 404.96450788 244.91285706 403.41233253 C244.88876729 401.24073172 244.85871909 399.06928989 244.82725334 396.89778519 C244.81170906 395.66090454 244.79616478 394.4240239 244.78014946 393.14966202 C244.75363408 390.08298413 244.75363408 390.08298413 243.62193108 387.13142776 C242.63193108 387.13142776 241.64193108 387.13142776 240.62193108 387.13142776 C240.62193108 386.47142776 240.62193108 385.81142776 240.62193108 385.13142776 C220.16193108 385.13142776 199.70193108 385.13142776 178.62193108 385.13142776 C178.62193108 385.79142776 178.62193108 386.45142776 178.62193108 387.13142776 C178.13486687 387.54184311 177.64780266 387.95225845 177.14597893 388.37511063 C174.92247944 390.93747785 175.24338273 392.87684717 175.23716545 396.23250198 C175.22199883 398.12124542 175.22199883 398.12124542 175.2065258 400.04814529 C175.20808174 400.72162884 175.20963768 401.39511238 175.21124077 402.08900452 C175.21573214 404.21023181 175.20167596 406.33063028 175.18284416 408.45177078 C175.14604771 412.96997595 175.13238434 417.48809497 175.12193108 422.00642776 C175.10978416 427.21214797 175.08774086 432.41746682 175.04192924 437.62300873 C175.02855637 439.69059032 175.03249672 441.75763856 175.03733635 443.8252449 C174.95558413 454.26094844 174.10597333 464.99135735 168.62193108 474.13142776 C167.96193108 474.13142776 167.30193108 474.13142776 166.62193108 474.13142776 C165.96193108 475.78142776 165.30193108 477.43142776 164.62193108 479.13142776 C163.96193108 479.13142776 163.30193108 479.13142776 162.62193108 479.13142776 C162.62193108 479.79142776 162.62193108 480.45142776 162.62193108 481.13142776 C159.62408384 482.63035138 156.54195909 482.28670355 153.25335503 482.29205704 C152.48479374 482.29714486 151.71623246 482.30223268 150.92438143 482.30747467 C148.33504111 482.32323877 145.74572877 482.33173465 143.1563549 482.340168 C141.30537042 482.34970332 139.45438773 482.35959433 137.60340691 482.36981583 C131.511947 482.40123972 125.42047327 482.42147271 119.32896233 482.44002151 C117.77529414 482.4449675 117.77529414 482.4449675 116.19023871 482.4500134 C106.42441618 482.4807971 96.65859063 482.50750936 86.89273357 482.52443218 C74.39437595 482.54634244 61.89644776 482.58831542 49.39826185 482.65786976 C40.61432305 482.70509614 31.83050018 482.729364 23.0464384 482.73662907 C17.79839849 482.74158765 12.55084225 482.7566881 7.30294037 482.79637337 C2.36406777 482.83322855 -2.57404472 482.84165301 -7.5130291 482.82836723 C-9.3242484 482.8284212 -11.13550128 482.83872572 -12.94659424 482.86011887 C-28.33460721 483.03214585 -28.33460721 483.03214585 -33.01010323 479.33786392 C-35.37806892 476.13142776 -35.37806892 476.13142776 -35.37806892 472.13142776 C-36.03806892 472.13142776 -36.69806892 472.13142776 -37.37806892 472.13142776 C-37.37806892 471.47142776 -37.37806892 470.81142776 -37.37806892 470.13142776 C-38.03806892 470.13142776 -38.69806892 470.13142776 -39.37806892 470.13142776 C-39.37806892 468.15142776 -39.37806892 466.17142776 -39.37806892 464.13142776 C-40.03806892 464.13142776 -40.69806892 464.13142776 -41.37806892 464.13142776 C-41.43865486 463.49334183 -41.4992408 462.85525589 -41.56166267 462.19783401 C-41.64545174 461.37154495 -41.7292408 460.54525589 -41.81556892 459.69392776 C-41.89677986 458.87021683 -41.9779908 458.04650589 -42.06166267 457.19783401 C-42.16737707 455.14480751 -42.16737707 455.14480751 -43.37806892 454.13142776 C-43.4873656 451.92948247 -43.52499807 449.72397923 -43.53628731 447.51935196 C-43.54369427 446.47063914 -43.54369427 446.47063914 -43.55125087 445.40074021 C-43.56669935 443.04070824 -43.57500624 440.68070363 -43.58339119 438.32063675 C-43.59296395 436.63577913 -43.60297367 434.95092394 -43.61338997 433.26607132 C-43.64051037 428.6774494 -43.66148117 424.08881713 -43.68139195 419.50015903 C-43.70320765 414.71016075 -43.73061787 409.92019466 -43.7574482 405.13022232 C-43.80743499 396.05316079 -43.85235153 386.97608144 -43.89547056 377.89898497 C-43.94479188 367.56781909 -43.99972888 357.23668551 -44.05515015 346.90555084 C-44.16906207 325.64753987 -44.27588095 304.3894981 -44.37806892 283.13142776 C-47.709321 282.02101041 -50.43449405 281.95362878 -53.94056892 281.81892776 C-60.50206697 281.38014446 -65.52997743 280.06038787 -71.37806892 277.13142776 C-72.21724861 276.74728714 -73.0564283 276.36314651 -73.92103767 275.96736526 C-79.97637568 272.98301744 -79.97637568 272.98301744 -81.94056892 268.81892776 C-82.08494392 267.93205276 -82.22931892 267.04517776 -82.37806892 266.13142776 C-83.03806892 266.13142776 -83.69806892 266.13142776 -84.37806892 266.13142776 C-85.19781155 264.09265827 -86.00854962 262.05026701 -86.81556892 260.00642776 C-87.26802986 258.86947464 -87.7204908 257.73252151 -88.18666267 256.56111526 C-90.49011356 249.93019762 -90.53127469 243.57583364 -90.53920174 236.63484573 C-90.54416664 235.5901059 -90.54913155 234.54536606 -90.5542469 233.46896744 C-90.56882344 230.02050994 -90.57566375 226.57209848 -90.58119392 223.12361526 C-90.58694997 220.71713129 -90.59270764 218.31064732 -90.59846687 215.90416336 C-90.60896466 210.85882225 -90.61481504 205.81349701 -90.6183033 200.76814651 C-90.62377926 194.32588379 -90.64779351 187.88383334 -90.67627525 181.44163704 C-90.69496748 176.46913937 -90.70011078 171.49669211 -90.70163918 166.52416229 C-90.70465238 164.15048057 -90.71263551 161.77679946 -90.72582436 159.40315247 C-90.7430193 156.07006665 -90.74097157 152.73749004 -90.73451424 149.40437698 C-90.74372902 148.43771606 -90.7529438 147.47105515 -90.76243782 146.47510147 C-90.70444781 136.8436739 -88.52393847 127.81801158 -84.37806892 119.13142776 C-83.71806892 119.13142776 -83.05806892 119.13142776 -82.37806892 119.13142776 C-82.13056892 118.51267776 -81.88306892 117.89392776 -81.62806892 117.25642776 C-80.17178253 114.7807409 -78.99994386 114.18017774 -76.37806892 113.13142776 C-76.37806892 112.47142776 -76.37806892 111.81142776 -76.37806892 111.13142776 C-75.38806892 111.13142776 -74.39806892 111.13142776 -73.37806892 111.13142776 C-73.37806892 110.47142776 -73.37806892 109.81142776 -73.37806892 109.13142776 C-72.05806892 109.13142776 -70.73806892 109.13142776 -69.37806892 109.13142776 C-69.37806892 108.47142776 -69.37806892 107.81142776 -69.37806892 107.13142776 C-63.72361492 104.97048993 -58.2729892 104.46222725 -52.30385017 103.92049026 C-47.87967526 103.6127462 -47.87967526 103.6127462 -44.37806892 101.13142776 C-44.05239509 98.30595068 -44.05239509 98.30595068 -44.07509041 94.95344925 C-44.05844841 93.65547913 -44.04180641 92.357509 -44.02466011 91.02020645 C-44.01609942 89.59764517 -44.00760178 88.17508352 -43.99916267 86.75252151 C-43.98299486 85.30044809 -43.96581563 83.84838559 -43.94766426 82.3963356 C-43.90192786 78.57122718 -43.86714587 74.74610436 -43.83546638 70.92085648 C-43.78363171 64.79387055 -43.71860269 58.66704497 -43.64725113 52.54025841 C-43.62434664 50.39475428 -43.60812241 48.24927073 -43.5925312 46.10370255 C-43.57904137 44.80888458 -43.56555153 43.51406662 -43.55165291 42.18001175 C-43.5373851 40.46031425 -43.5373851 40.46031425 -43.52282906 38.7058754 C-43.37806892 36.13142776 -43.37806892 36.13142776 -42.37806892 35.13142776 C-42.14782351 33.15789562 -41.91857938 31.1842312 -41.69838142 29.20955276 C-41.30494929 26.65704182 -40.47143306 24.46393792 -39.37806892 22.13142776 C-38.71806892 22.13142776 -38.05806892 22.13142776 -37.37806892 22.13142776 C-37.37806892 20.81142776 -37.37806892 19.49142776 -37.37806892 18.13142776 C-36.71806892 18.13142776 -36.05806892 18.13142776 -35.37806892 18.13142776 C-35.29556892 17.34767776 -35.21306892 16.56392776 -35.12806892 15.75642776 C-34.37806892 13.13142776 -34.37806892 13.13142776 -32.31556892 11.81892776 C-31.67619392 11.59205276 -31.03681892 11.36517776 -30.37806892 11.13142776 C-30.37806892 10.47142776 -30.37806892 9.81142776 -30.37806892 9.13142776 C-27.37806892 7.13142776 -27.37806892 7.13142776 -24.37806892 7.13142776 C-24.37806892 6.47142776 -24.37806892 5.81142776 -24.37806892 5.13142776 C-22.48353671 4.48178753 -20.58738244 3.83687662 -18.69056892 3.19392776 C-17.10695564 2.65445511 -17.10695564 2.65445511 -15.49135017 2.10408401 C-10.20843496 0.45358729 -5.54551918 0.00526238 0 0 Z M428.62193108 14.13142776 C432.62193108 15.13142776 432.62193108 15.13142776 432.62193108 15.13142776 Z M-56.37806892 117.13142776 C-56.37806892 117.46142776 -56.37806892 117.79142776 -56.37806892 118.13142776 C-49.11806892 118.13142776 -41.85806892 118.13142776 -34.37806892 118.13142776 C-34.37806892 117.80142776 -34.37806892 117.47142776 -34.37806892 117.13142776 C-41.63806892 117.13142776 -48.89806892 117.13142776 -56.37806892 117.13142776 Z M461.62193108 117.13142776 C461.62193108 117.46142776 461.62193108 117.79142776 461.62193108 118.13142776 C466.24193108 118.13142776 470.86193108 118.13142776 475.62193108 118.13142776 C475.62193108 117.80142776 475.62193108 117.47142776 475.62193108 117.13142776 C471.00193108 117.13142776 466.38193108 117.13142776 461.62193108 117.13142776 Z  M0 0 C0.73691621 -0.00205263 1.47383243 -0.00410527 2.23307943 -0.0062201 C4.70989155 -0.01188821 7.18664803 -0.01043308 9.6634655 -0.00901413 C11.45422997 -0.01159788 13.24499386 -0.01461106 15.03575695 -0.01801753 C19.96291094 -0.02608972 24.89005037 -0.02787723 29.8172102 -0.028615 C35.12890641 -0.03046518 40.44059507 -0.03801236 45.75228691 -0.04475021 C57.37012646 -0.05833579 68.98796256 -0.06435865 80.60580873 -0.06876087 C87.85959541 -0.07152301 95.11338075 -0.07576032 102.36716652 -0.08026505 C122.44928529 -0.09245819 142.531403 -0.10275729 162.61352539 -0.10614014 C164.54172755 -0.10646949 164.54172755 -0.10646949 166.50888329 -0.10680549 C167.79743511 -0.10702377 169.08598693 -0.10724204 170.41358578 -0.10746694 C173.02470088 -0.1079104 175.63581598 -0.10835697 178.24693108 -0.10880661 C179.54213558 -0.10902804 180.83734008 -0.10924947 182.17179321 -0.10947761 C203.1576383 -0.11342542 224.14344867 -0.13087873 245.12928034 -0.15416613 C266.67317955 -0.1778799 288.21706134 -0.19034201 309.76097381 -0.19150805 C321.85783522 -0.19242482 333.95465138 -0.19817751 346.05150032 -0.21632767 C356.35263054 -0.23172899 366.65370154 -0.23684892 376.95484109 -0.22858956 C382.20982468 -0.22468315 387.46468899 -0.22561234 392.7196579 -0.23964691 C397.53367053 -0.25238613 402.34747427 -0.25118803 407.16148661 -0.2390562 C408.89974678 -0.23709925 410.63802175 -0.24017755 412.37626113 -0.24890056 C421.54788966 -0.29199949 429.85811903 0.09192311 438.62193108 3.13142776 C440.0154857 3.53521016 441.41109981 3.93201126 442.80943108 4.31892776 C444.20161858 4.72111526 444.20161858 4.72111526 445.62193108 5.13142776 C445.62193108 5.79142776 445.62193108 6.45142776 445.62193108 7.13142776 C446.20974358 7.38666214 446.79755608 7.64189651 447.40318108 7.90486526 C453.77986257 11.43000257 458.07627557 18.47730898 460.62193108 25.13142776 C462.78997544 32.70243148 462.92753653 40.27574168 462.95745659 48.10420227 C462.96586151 50.23178862 462.9864627 52.35896894 463.0099926 54.48643875 C463.06592283 59.76024561 463.10167504 65.03415022 463.13761711 70.30812454 C463.16888993 74.78869839 463.20805704 79.2690663 463.25787163 83.74947357 C463.27787081 85.84116535 463.28623973 87.93269648 463.29417229 90.02446365 C463.30758659 91.29323349 463.3210009 92.56200333 463.3348217 93.86922073 C463.34211296 94.98489426 463.34940422 96.10056778 463.35691643 97.25004959 C463.61639219 100.07120611 464.15980853 101.73646377 465.62193108 104.13142776 C466.92130608 104.11080276 468.22068108 104.09017776 469.55943108 104.06892776 C474.31575432 104.06137805 478.90582061 104.53255659 483.62193108 105.13142776 C483.62193108 105.79142776 483.62193108 106.45142776 483.62193108 107.13142776 C485.60193108 107.13142776 487.58193108 107.13142776 489.62193108 107.13142776 C489.62193108 107.79142776 489.62193108 108.45142776 489.62193108 109.13142776 C490.94193108 109.13142776 492.26193108 109.13142776 493.62193108 109.13142776 C493.62193108 109.79142776 493.62193108 110.45142776 493.62193108 111.13142776 C494.28193108 111.13142776 494.94193108 111.13142776 495.62193108 111.13142776 C495.62193108 111.79142776 495.62193108 112.45142776 495.62193108 113.13142776 C496.21618889 113.39439651 496.8104467 113.65736526 497.42271233 113.92830276 C501.0011198 115.88593954 503.37050218 118.76473998 505.62193108 122.13142776 C506.49693108 125.56892776 506.49693108 125.56892776 506.62193108 128.13142776 C507.28193108 128.13142776 507.94193108 128.13142776 508.62193108 128.13142776 C509.71103202 134.29749313 509.76327013 140.31959273 509.75132561 146.57112503 C509.75307793 147.70367722 509.75483025 148.8362294 509.75663567 150.00310135 C509.76102535 153.73469464 509.75812652 157.46624027 509.75474358 161.19783401 C509.7554174 163.79662459 509.75638808 166.39541511 509.75764275 168.99420547 C509.75911577 174.43537938 509.75707352 179.87653547 509.75230217 185.31770706 C509.74685796 191.59853249 509.74862576 197.87932546 509.75412858 204.16015011 C509.75922133 210.21658434 509.75867224 216.27300275 509.75574684 222.32943916 C509.75508 224.90065325 509.75589753 227.47186817 509.75822639 230.04308128 C509.76076666 233.63578484 509.75689295 237.22842611 509.75132561 240.82112503 C509.75334984 241.88259247 509.75537407 242.94405991 509.75745964 244.03769302 C509.74365406 248.84834552 509.63628216 253.40291809 508.62193108 258.13142776 C507.96193108 258.13142776 507.30193108 258.13142776 506.62193108 258.13142776 C506.71474358 259.21424026 506.71474358 259.21424026 506.80943108 260.31892776 C506.58446487 263.69342092 505.62323345 265.43736688 503.62193108 268.13142776 C502.96193108 268.13142776 502.30193108 268.13142776 501.62193108 268.13142776 C501.62193108 268.79142776 501.62193108 269.45142776 501.62193108 270.13142776 C500.96193108 270.13142776 500.30193108 270.13142776 499.62193108 270.13142776 C499.62193108 270.79142776 499.62193108 271.45142776 499.62193108 272.13142776 C498.96193108 272.13142776 498.30193108 272.13142776 497.62193108 272.13142776 C497.62193108 272.79142776 497.62193108 273.45142776 497.62193108 274.13142776 C488.46642209 278.95787315 480.89327422 281.29387449 470.51255608 281.88533401 C467.55548578 282.02323576 467.55548578 282.02323576 464.62193108 283.13142776 C463.47834976 286.5621717 463.49144305 289.20089557 463.48390007 292.82060623 C463.48107879 293.5041175 463.47825751 294.18762877 463.47535074 294.8918525 C463.4670022 297.18770542 463.46566622 299.48351012 463.46421623 301.77937698 C463.45954789 303.4237316 463.45440429 305.06808492 463.44882011 306.71243668 C463.43753394 310.25808338 463.42910197 313.80372166 463.42270088 317.34938049 C463.41201403 322.96524806 463.39176439 328.58105551 463.36958122 334.19688797 C463.30768958 350.16820373 463.25374329 366.13951686 463.22056389 382.11091995 C463.20216542 390.92857744 463.17315928 399.74613498 463.13255918 408.56371891 C463.1115669 413.22601184 463.09604309 417.88817919 463.09375191 422.55052185 C463.09158994 426.94514944 463.07556431 431.33951617 463.04936218 435.7340641 C463.04222477 437.33792363 463.04004088 438.94181496 463.04346466 440.54568672 C463.0640982 452.05973489 462.70902346 463.9862738 456.62193108 474.13142776 C455.96193108 474.13142776 455.30193108 474.13142776 454.62193108 474.13142776 C454.29193108 475.45142776 453.96193108 476.77142776 453.62193108 478.13142776 C452.96193108 478.13142776 452.30193108 478.13142776 451.62193108 478.13142776 C450.96193108 479.45142776 450.30193108 480.77142776 449.62193108 482.13142776 C424.83967092 482.31830882 400.05751635 482.45938292 375.27469349 482.54592514 C363.76755977 482.58717636 352.26086386 482.64341616 340.75401115 482.73494339 C330.72461947 482.81468065 320.69554483 482.86629346 310.66584498 482.88413572 C305.35498498 482.89456565 300.04503201 482.91907601 294.73446274 482.97726822 C289.73475787 483.03160967 284.73633269 483.04831256 279.73636055 483.03628922 C277.90252729 483.03848838 276.06865083 483.05438021 274.23507309 483.08507156 C260.39848795 483.30529588 260.39848795 483.30529588 255.9405365 480.35968399 C251.62193108 475.6102929 251.62193108 475.6102929 251.62193108 472.13142776 C250.96193108 472.13142776 250.30193108 472.13142776 249.62193108 472.13142776 C248.03055022 467.95405303 247.4091505 464.59981992 247.62193108 460.13142776 C246.96193108 460.13142776 246.30193108 460.13142776 245.62193108 460.13142776 C245.61162361 459.26112427 245.60131615 458.39082077 245.59069633 457.49414444 C245.49277716 449.29811932 245.39027062 441.10216725 245.28259182 432.90626431 C245.22739356 428.692527 245.17397849 424.47878272 245.12461662 420.26497269 C245.07692742 416.19952013 245.02458291 412.13415187 244.96899033 408.06879997 C244.94858743 406.51666548 244.92987093 404.96450788 244.91285706 403.41233253 C244.88876729 401.24073172 244.85871909 399.06928989 244.82725334 396.89778519 C244.81170906 395.66090454 244.79616478 394.4240239 244.78014946 393.14966202 C244.75363408 390.08298413 244.75363408 390.08298413 243.62193108 387.13142776 C242.63193108 387.13142776 241.64193108 387.13142776 240.62193108 387.13142776 C240.62193108 386.47142776 240.62193108 385.81142776 240.62193108 385.13142776 C220.16193108 385.13142776 199.70193108 385.13142776 178.62193108 385.13142776 C178.62193108 385.79142776 178.62193108 386.45142776 178.62193108 387.13142776 C178.13486687 387.54184311 177.64780266 387.95225845 177.14597893 388.37511063 C174.92247944 390.93747785 175.24338273 392.87684717 175.23716545 396.23250198 C175.22199883 398.12124542 175.22199883 398.12124542 175.2065258 400.04814529 C175.20808174 400.72162884 175.20963768 401.39511238 175.21124077 402.08900452 C175.21573214 404.21023181 175.20167596 406.33063028 175.18284416 408.45177078 C175.14604771 412.96997595 175.13238434 417.48809497 175.12193108 422.00642776 C175.10978416 427.21214797 175.08774086 432.41746682 175.04192924 437.62300873 C175.02855637 439.69059032 175.03249672 441.75763856 175.03733635 443.8252449 C174.95558413 454.26094844 174.10597333 464.99135735 168.62193108 474.13142776 C167.96193108 474.13142776 167.30193108 474.13142776 166.62193108 474.13142776 C165.96193108 475.78142776 165.30193108 477.43142776 164.62193108 479.13142776 C163.96193108 479.13142776 163.30193108 479.13142776 162.62193108 479.13142776 C162.62193108 479.79142776 162.62193108 480.45142776 162.62193108 481.13142776 C159.62408384 482.63035138 156.54195909 482.28670355 153.25335503 482.29205704 C152.48479374 482.29714486 151.71623246 482.30223268 150.92438143 482.30747467 C148.33504111 482.32323877 145.74572877 482.33173465 143.1563549 482.340168 C141.30537042 482.34970332 139.45438773 482.35959433 137.60340691 482.36981583 C131.511947 482.40123972 125.42047327 482.42147271 119.32896233 482.44002151 C117.77529414 482.4449675 117.77529414 482.4449675 116.19023871 482.4500134 C106.42441618 482.4807971 96.65859063 482.50750936 86.89273357 482.52443218 C74.39437595 482.54634244 61.89644776 482.58831542 49.39826185 482.65786976 C40.61432305 482.70509614 31.83050018 482.729364 23.0464384 482.73662907 C17.79839849 482.74158765 12.55084225 482.7566881 7.30294037 482.79637337 C2.36406777 482.83322855 -2.57404472 482.84165301 -7.5130291 482.82836723 C-9.3242484 482.8284212 -11.13550128 482.83872572 -12.94659424 482.86011887 C-28.33460721 483.03214585 -28.33460721 483.03214585 -33.01010323 479.33786392 C-35.37806892 476.13142776 -35.37806892 476.13142776 -35.37806892 472.13142776 C-36.03806892 472.13142776 -36.69806892 472.13142776 -37.37806892 472.13142776 C-37.37806892 471.47142776 -37.37806892 470.81142776 -37.37806892 470.13142776 C-38.03806892 470.13142776 -38.69806892 470.13142776 -39.37806892 470.13142776 C-39.37806892 468.15142776 -39.37806892 466.17142776 -39.37806892 464.13142776 C-40.03806892 464.13142776 -40.69806892 464.13142776 -41.37806892 464.13142776 C-41.43865486 463.49334183 -41.4992408 462.85525589 -41.56166267 462.19783401 C-41.64545174 461.37154495 -41.7292408 460.54525589 -41.81556892 459.69392776 C-41.89677986 458.87021683 -41.9779908 458.04650589 -42.06166267 457.19783401 C-42.16737707 455.14480751 -42.16737707 455.14480751 -43.37806892 454.13142776 C-43.4873656 451.92948247 -43.52499807 449.72397923 -43.53628731 447.51935196 C-43.54369427 446.47063914 -43.54369427 446.47063914 -43.55125087 445.40074021 C-43.56669935 443.04070824 -43.57500624 440.68070363 -43.58339119 438.32063675 C-43.59296395 436.63577913 -43.60297367 434.95092394 -43.61338997 433.26607132 C-43.64051037 428.6774494 -43.66148117 424.08881713 -43.68139195 419.50015903 C-43.70320765 414.71016075 -43.73061787 409.92019466 -43.7574482 405.13022232 C-43.80743499 396.05316079 -43.85235153 386.97608144 -43.89547056 377.89898497 C-43.94479188 367.56781909 -43.99972888 357.23668551 -44.05515015 346.90555084 C-44.16906207 325.64753987 -44.27588095 304.3894981 -44.37806892 283.13142776 C-47.709321 282.02101041 -50.43449405 281.95362878 -53.94056892 281.81892776 C-60.50206697 281.38014446 -65.52997743 280.06038787 -71.37806892 277.13142776 C-72.21724861 276.74728714 -73.0564283 276.36314651 -73.92103767 275.96736526 C-79.97637568 272.98301744 -79.97637568 272.98301744 -81.94056892 268.81892776 C-82.08494392 267.93205276 -82.22931892 267.04517776 -82.37806892 266.13142776 C-83.03806892 266.13142776 -83.69806892 266.13142776 -84.37806892 266.13142776 C-85.19781155 264.09265827 -86.00854962 262.05026701 -86.81556892 260.00642776 C-87.26802986 258.86947464 -87.7204908 257.73252151 -88.18666267 256.56111526 C-90.49011356 249.93019762 -90.53127469 243.57583364 -90.53920174 236.63484573 C-90.54416664 235.5901059 -90.54913155 234.54536606 -90.5542469 233.46896744 C-90.56882344 230.02050994 -90.57566375 226.57209848 -90.58119392 223.12361526 C-90.58694997 220.71713129 -90.59270764 218.31064732 -90.59846687 215.90416336 C-90.60896466 210.85882225 -90.61481504 205.81349701 -90.6183033 200.76814651 C-90.62377926 194.32588379 -90.64779351 187.88383334 -90.67627525 181.44163704 C-90.69496748 176.46913937 -90.70011078 171.49669211 -90.70163918 166.52416229 C-90.70465238 164.15048057 -90.71263551 161.77679946 -90.72582436 159.40315247 C-90.7430193 156.07006665 -90.74097157 152.73749004 -90.73451424 149.40437698 C-90.74372902 148.43771606 -90.7529438 147.47105515 -90.76243782 146.47510147 C-90.70444781 136.8436739 -88.52393847 127.81801158 -84.37806892 119.13142776 C-83.71806892 119.13142776 -83.05806892 119.13142776 -82.37806892 119.13142776 C-82.13056892 118.51267776 -81.88306892 117.89392776 -81.62806892 117.25642776 C-80.17178253 114.7807409 -78.99994386 114.18017774 -76.37806892 113.13142776 C-76.37806892 112.47142776 -76.37806892 111.81142776 -76.37806892 111.13142776 C-75.38806892 111.13142776 -74.39806892 111.13142776 -73.37806892 111.13142776 C-73.37806892 110.47142776 -73.37806892 109.81142776 -73.37806892 109.13142776 C-72.05806892 109.13142776 -70.73806892 109.13142776 -69.37806892 109.13142776 C-69.37806892 108.47142776 -69.37806892 107.81142776 -69.37806892 107.13142776 C-63.72361492 104.97048993 -58.2729892 104.46222725 -52.30385017 103.92049026 C-47.87967526 103.6127462 -47.87967526 103.6127462 -44.37806892 101.13142776 C-44.05239509 98.30595068 -44.05239509 98.30595068 -44.07509041 94.95344925 C-44.05844841 93.65547913 -44.04180641 92.357509 -44.02466011 91.02020645 C-44.01609942 89.59764517 -44.00760178 88.17508352 -43.99916267 86.75252151 C-43.98299486 85.30044809 -43.96581563 83.84838559 -43.94766426 82.3963356 C-43.90192786 78.57122718 -43.86714587 74.74610436 -43.83546638 70.92085648 C-43.78363171 64.79387055 -43.71860269 58.66704497 -43.64725113 52.54025841 C-43.62434664 50.39475428 -43.60812241 48.24927073 -43.5925312 46.10370255 C-43.57904137 44.80888458 -43.56555153 43.51406662 -43.55165291 42.18001175 C-43.5373851 40.46031425 -43.5373851 40.46031425 -43.52282906 38.7058754 C-43.37806892 36.13142776 -43.37806892 36.13142776 -42.37806892 35.13142776 C-42.14782351 33.15789562 -41.91857938 31.1842312 -41.69838142 29.20955276 C-41.30494929 26.65704182 -40.47143306 24.46393792 -39.37806892 22.13142776 C-38.71806892 22.13142776 -38.05806892 22.13142776 -37.37806892 22.13142776 C-37.37806892 20.81142776 -37.37806892 19.49142776 -37.37806892 18.13142776 C-36.71806892 18.13142776 -36.05806892 18.13142776 -35.37806892 18.13142776 C-35.29556892 17.34767776 -35.21306892 16.56392776 -35.12806892 15.75642776 C-34.37806892 13.13142776 -34.37806892 13.13142776 -32.31556892 11.81892776 C-31.67619392 11.59205276 -31.03681892 11.36517776 -30.37806892 11.13142776 C-30.37806892 10.47142776 -30.37806892 9.81142776 -30.37806892 9.13142776 C-27.37806892 7.13142776 -27.37806892 7.13142776 -24.37806892 7.13142776 C-24.37806892 6.47142776 -24.37806892 5.81142776 -24.37806892 5.13142776 C-22.48353671 4.48178753 -20.58738244 3.83687662 -18.69056892 3.19392776 C-17.10695564 2.65445511 -17.10695564 2.65445511 -15.49135017 2.10408401 C-10.20843496 0.45358729 -5.54551918 0.00526238 0 0 Z M428.62193108 14.13142776 C432.62193108 15.13142776 432.62193108 15.13142776 432.62193108 15.13142776 Z M-6.37806892 31.13142776 C-6.37806892 65.45142776 -6.37806892 99.77142776 -6.37806892 135.13142776 C-22.21806892 135.13142776 -38.05806892 135.13142776 -54.37806892 135.13142776 C-54.37806892 169.45142776 -54.37806892 203.77142776 -54.37806892 239.13142776 C-38.53806892 239.13142776 -22.69806892 239.13142776 -6.37806892 239.13142776 C-6.37806892 308.10142776 -6.37806892 377.07142776 -6.37806892 448.13142776 C9.46193108 448.13142776 25.30193108 448.13142776 41.62193108 448.13142776 C41.62193108 413.48142776 41.62193108 378.83142776 41.62193108 343.13142776 C57.79193108 343.13142776 73.96193108 343.13142776 90.62193108 343.13142776 C90.62193108 377.45142776 90.62193108 411.77142776 90.62193108 447.13142776 C106.13193108 447.13142776 121.64193108 447.13142776 137.62193108 447.13142776 C137.62193108 412.81142776 137.62193108 378.49142776 137.62193108 343.13142776 C185.47193108 343.13142776 233.32193108 343.13142776 282.62193108 343.13142776 C282.62193108 377.45142776 282.62193108 411.77142776 282.62193108 447.13142776 C298.13193108 447.13142776 313.64193108 447.13142776 329.62193108 447.13142776 C329.62193108 412.81142776 329.62193108 378.49142776 329.62193108 343.13142776 C345.79193108 343.13142776 361.96193108 343.13142776 378.62193108 343.13142776 C378.62193108 377.78142776 378.62193108 412.43142776 378.62193108 448.13142776 C394.46193108 448.13142776 410.30193108 448.13142776 426.62193108 448.13142776 C426.62193108 379.49142776 426.62193108 310.85142776 426.62193108 240.13142776 C442.13193108 240.13142776 457.64193108 240.13142776 473.62193108 240.13142776 C473.62193108 205.48142776 473.62193108 170.83142776 473.62193108 135.13142776 C458.11193108 135.13142776 442.60193108 135.13142776 426.62193108 135.13142776 C426.62193108 100.81142776 426.62193108 66.49142776 426.62193108 31.13142776 C283.73193108 31.13142776 140.84193108 31.13142776 -6.37806892 31.13142776 Z M-56.37806892 117.13142776 C-56.37806892 117.46142776 -56.37806892 117.79142776 -56.37806892 118.13142776 C-49.11806892 118.13142776 -41.85806892 118.13142776 -34.37806892 118.13142776 C-34.37806892 117.80142776 -34.37806892 117.47142776 -34.37806892 117.13142776 C-41.63806892 117.13142776 -48.89806892 117.13142776 -56.37806892 117.13142776 Z M461.62193108 117.13142776 C461.62193108 117.46142776 461.62193108 117.79142776 461.62193108 118.13142776 C466.24193108 118.13142776 470.86193108 118.13142776 475.62193108 118.13142776 C475.62193108 117.80142776 475.62193108 117.47142776 475.62193108 117.13142776 C471.00193108 117.13142776 466.38193108 117.13142776 461.62193108 117.13142776 Z " fill="#D97757" fill-rule="evenodd" transform="translate(90.3780689239502,4.868572235107422)"/>
        <!-- Black outline/details -->
        
        
        
      </g>

      <!-- Left eye -->
      <g class="eye-left">
        <path d="M0 0 C11.59896183 4.62535288 23.19335222 9.2579616 34.7578125 13.96875 C35.58894058 14.30700302 36.42006866 14.64525604 37.27638245 14.99375916 C43.98952703 17.72597059 43.98952703 17.72597059 47.30819702 19.08303833 C49.6693706 20.04856229 52.03183491 21.01086584 54.39453125 21.97265625 C55.10396881 22.26390381 55.81340637 22.55515137 56.54434204 22.85522461 C59.69629003 24.13532057 62.68922299 25.17230575 66 26 C66 33.59 66 41.18 66 49 C55.37091101 54.05024045 44.55773525 58.54530458 33.65991211 62.97827148 C30.67495484 64.19260359 27.69183712 65.41136807 24.70898438 66.63085938 C22.78916737 67.41431952 20.86924903 68.19753143 18.94921875 68.98046875 C18.06884445 69.33989059 17.18847015 69.69931244 16.28141785 70.06962585 C15.443069 70.41040665 14.60472015 70.75118744 13.7409668 71.10229492 C12.65394722 71.54480843 12.65394722 71.54480843 11.54496765 71.9962616 C8.04735008 73.37572631 4.52042981 74.67983882 1 76 C1 68.08 1 60.16 1 52 C9.96393557 48.07060358 19.07536622 44.8250867 28.34008789 41.6796875 C29.31453857 41.34710938 30.28898926 41.01453125 31.29296875 40.671875 C32.1749292 40.3737793 33.05688965 40.07568359 33.96557617 39.76855469 C35.96419582 39.17300046 35.96419582 39.17300046 37 38 C35.95021973 37.58113525 34.90043945 37.16227051 33.81884766 36.73071289 C29.9309668 35.17917553 26.0435397 33.62650412 22.15625 32.07348633 C20.47245478 31.40097514 18.788536 30.72877322 17.10449219 30.05688477 C14.6865246 29.09211855 12.26900083 28.12624775 9.8515625 27.16015625 C9.0963028 26.85908463 8.34104309 26.558013 7.56289673 26.24781799 C2.22774341 24.11387171 2.22774341 24.11387171 0 23 C0 15.41 0 7.82 0 0 Z " fill="#030101" transform="translate(128,128)"/>
      </g>

      <!-- Right eye (twitch + blink) -->
      <g class="eye-right-outer">
        <g class="eye-right-inner">
          <path d="M0 0 C0 7.26 0 14.52 0 22 C-8.27824516 25.51217183 -16.60021149 28.77255057 -25.0625 31.8125 C-26.7321582 32.42254883 -26.7321582 32.42254883 -28.43554688 33.04492188 C-29.49966797 33.42841797 -30.56378906 33.81191406 -31.66015625 34.20703125 C-32.61543213 34.5522583 -33.57070801 34.89748535 -34.55493164 35.25317383 C-37 36 -37 36 -40 36 C-40 36.66 -40 37.32 -40 38 C-38.84628906 38.21398437 -37.69257813 38.42796875 -36.50390625 38.6484375 C-29.11017865 40.29148808 -22.04617139 43.05124065 -14.9375 45.625 C-13.4852038 46.14632879 -12.03273111 46.6671662 -10.58007812 47.1875 C-7.05096375 48.45178056 -3.52569853 49.7260618 0 51 C0 58.92 0 66.84 0 75 C-10.13102894 71.62299035 -10.13102894 71.62299035 -14.14453125 69.94140625 C-15.51134033 69.37087524 -15.51134033 69.37087524 -16.90576172 68.78881836 C-17.86498535 68.3841333 -18.82420898 67.97944824 -19.8125 67.5625 C-20.82844238 67.13654541 -21.84438477 66.71059082 -22.89111328 66.27172852 C-31.40045361 62.69497556 -39.88996688 59.07147096 -48.375 55.4375 C-49.30416733 55.03955734 -49.30416733 55.03955734 -50.25210571 54.63357544 C-60.62214352 50.18892824 -60.62214352 50.18892824 -63 49 C-63 41.41 -63 33.82 -63 26 C-53.66586653 21.62873327 -44.26413825 17.52055328 -34.75 13.5625 C-33.38121495 12.99141533 -32.01248163 12.42020664 -30.64379883 11.84887695 C-27.97298008 10.73459899 -25.30148201 9.62197406 -22.62939453 8.51074219 C-19.51007126 7.21231811 -16.39315072 5.90839302 -13.27734375 4.6015625 C-11.74753332 3.96321208 -10.21760002 3.32515598 -8.6875 2.6875 C-8.01364258 2.40398682 -7.33978516 2.12047363 -6.64550781 1.82836914 C-2.22995786 0 -2.22995786 0 0 0 Z " fill="#020101" transform="translate(473,130)"/>
        </g>
      </g>

    </g>
  </g>
</svg>